<?xml version="1.0" encoding="UTF-8" standalone="no"?>
<!-- Created with Inkscape (http://www.inkscape.org/) -->

<svg
   width="210mm"
   height="297mm"
   viewBox="0 0 210 297"
   version="1.1"
   id="svg5"
   inkscape:version="1.2.2 (732a01da63, 2022-12-09)"
   sodipodi:docname="f_profilkep.svg"
   xmlns:inkscape="http://www.inkscape.org/namespaces/inkscape"
   xmlns:sodipodi="http://sodipodi.sourceforge.net/DTD/sodipodi-0.dtd"
   xmlns="http://www.w3.org/2000/svg"
   xmlns:svg="http://www.w3.org/2000/svg">
  <sodipodi:namedview
     id="namedview7"
     pagecolor="#ffffff"
     bordercolor="#000000"
     borderopacity="0.25"
     inkscape:showpageshadow="2"
     inkscape:pageopacity="0.0"
     inkscape:pagecheckerboard="0"
     inkscape:deskcolor="#d1d1d1"
     inkscape:document-units="mm"
     showgrid="false"
     inkscape:zoom="0.49638341"
     inkscape:cx="383.77592"
     inkscape:cy="676.89611"
     inkscape:window-width="1920"
     inkscape:window-height="986"
     inkscape:window-x="-11"
     inkscape:window-y="-11"
     inkscape:window-maximized="1"
     inkscape:current-layer="layer1" />
  <defs
     id="defs2" />
  <g
     inkscape:label="Réteg 1"
     inkscape:groupmode="layer"
     id="layer1">
    <g
       id="g460"
       transform="translate(-15.990663,-85.283538)" />
    <g
       id="g11984">
      <g
         id="g3972">
        <path
           id="path2472"
           style="fill:#d2d2d2;fill-opacity:1;stroke:none;stroke-width:1.6894;stroke-linecap:square;stroke-miterlimit:0"
           d="m 55.689525,212.12337 c -7.840382,-0.17138 -15.88234,5.56197 -15.722527,16.56938 0.160172,11.03209 15.785523,24.15368 4.642108,27.98133 0.238874,0.25497 0.493129,0.4952 0.754145,0.72852 a 29.166034,29.538368 0 0 0 10.858481,2.13375 29.166034,29.538368 0 0 0 10.127794,-1.83929 c 0.257599,-0.19286 0.511768,-0.39112 0.75796,-0.60092 -11.481569,-4.38037 3.211751,-19.69057 3.177984,-28.33578 -0.04337,-11.10417 -7.23074,-16.47599 -14.595945,-16.63699 z" />
        <path
           id="path2474"
           style="fill:#efefef;fill-opacity:1;stroke:none;stroke-width:1.6894;stroke-linecap:square;stroke-miterlimit:0"
           d="m 55.324727,212.11956 c -3.77299,0.005 -7.562191,1.37571 -10.433158,4.03846 a 16.224567,18.864307 1.1138751 0 1 19.6034,6.76713 16.224567,18.864307 1.1138751 0 1 1.07369,18.94577 c 2.150734,-4.67718 4.730993,-9.48092 4.716811,-13.11056 -0.04337,-11.10416 -7.23075,-16.47599 -14.595945,-16.63699 -0.121645,-0.003 -0.243089,-0.004 -0.364798,-0.004 z" />
        <path
           id="path2476"
           style="fill:#9f9f9f;fill-opacity:1;stroke:none;stroke-width:1.6894;stroke-linecap:square;stroke-miterlimit:0"
           d="m 41.423485,221.0406 c -0.960102,2.16983 -1.498999,4.72397 -1.456487,7.65215 0.160172,11.03207 15.785513,24.15368 4.642108,27.98133 0.236762,0.25271 0.488533,0.49108 0.747056,0.72252 a 29.166034,29.538368 0 0 0 10.86557,2.13975 29.166034,29.538368 0 0 0 10.126159,-1.83821 c 0.258168,-0.19323 0.512875,-0.39175 0.759595,-0.602 -1.038868,-0.39634 -1.860688,-0.88331 -2.501276,-1.44558 -15.247094,-2.25349 -20.191761,-18.30704 -21.592096,-21.72134 -1.235295,-3.26822 -2.12032,-6.68413 -1.590629,-12.88862 z" />
      </g>
      <ellipse
         style="fill:none;fill-opacity:1;stroke:#000000;stroke-width:1.49113;stroke-linecap:square;stroke-miterlimit:1
         ;stroke-opacity:1"
         id="ellipse2480"
         cx="56.221828"
         cy="229.99776"
         rx="29.166035"
         ry="29.538368" />
      <g
         id="g11967">
        <rect
           style="fill:#000000;fill-opacity:1;stroke-width:1.601;stroke-linecap:square;stroke-miterlimit:0;-inkscape-stroke:none;stop-color:#000000"
           id="rect10705"
           width="9.3278866"
           height="0.99941647"
           x="50.970238"
           y="237.82782" />
        <g
           id="g2486"
           transform="matrix(1.0552127,0,0,1.0552127,-37.501061,60.237946)">
          <ellipse
             style="fill:#ffffff;fill-opacity:1;stroke:#000000;stroke-width:1.22302;stroke-dasharray:none;stroke-opacity:1;paint-order:stroke fill markers"
             id="ellipse2482"
             cx="82.635651"
             cy="158.75899"
             rx="3.9489949"
             ry="4.4504542" />
          <ellipse
             style="fill:#080808;fill-opacity:1;stroke:#000000;stroke-width:0.846706;stroke-dasharray:none;stroke-opacity:1;paint-order:stroke fill markers"
             id="ellipse2484"
             cx="83.22303"
             cy="159.13904"
             rx="0.94023687"
             ry="1.0029193" />
        </g>
        <rect
           style="fill:#000000;fill-opacity:1;stroke-width:1.601;stroke-linecap:square;stroke-miterlimit:0;-inkscape-stroke:none;stop-color:#000000"
           id="rect10820"
           width="9.3278866"
           height="0.99941647"
           x="44.507343"
           y="219.57181" />
        <g
           id="g10832"
           transform="matrix(-1.0552127,0,0,1.0552127,148.42549,60.237946)">
          <ellipse
             style="fill:#ffffff;fill-opacity:1;stroke:#000000;stroke-width:1.22302;stroke-dasharray:none;stroke-opacity:1;paint-order:stroke fill markers"
             id="ellipse10828"
             cx="82.635651"
             cy="158.75899"
             rx="3.9489949"
             ry="4.4504542" />
          <ellipse
             style="fill:#080808;fill-opacity:1;stroke:#000000;stroke-width:0.846706;stroke-dasharray:none;stroke-opacity:1;paint-order:stroke fill markers"
             id="ellipse10830"
             cx="83.22303"
             cy="159.13904"
             rx="0.94023687"
             ry="1.0029193" />
        </g>
        <rect
           style="fill:#000000;fill-opacity:1;stroke-width:1.601;stroke-linecap:square;stroke-miterlimit:0;-inkscape-stroke:none;stop-color:#000000"
           id="rect10834"
           width="9.3278866"
           height="0.99941647"
           x="-66.417084"
           y="219.57181"
           transform="scale(-1,1)" />
      </g>
    </g>
  </g>
</svg>
