<?xml version="1.0" encoding="UTF-8" standalone="no"?>
<!-- Created with Inkscape (http://www.inkscape.org/) -->

<svg
   width="210mm"
   height="297mm"
   viewBox="0 0 210 297"
   version="1.1"
   id="svg5"
   inkscape:version="1.2.2 (732a01da63, 2022-12-09)"
   sodipodi:docname="k_profilkep.svg"
   xmlns:inkscape="http://www.inkscape.org/namespaces/inkscape"
   xmlns:sodipodi="http://sodipodi.sourceforge.net/DTD/sodipodi-0.dtd"
   xmlns="http://www.w3.org/2000/svg"
   xmlns:svg="http://www.w3.org/2000/svg">
  <sodipodi:namedview
     id="namedview7"
     pagecolor="#ffffff"
     bordercolor="#000000"
     borderopacity="0.25"
     inkscape:showpageshadow="2"
     inkscape:pageopacity="0.0"
     inkscape:pagecheckerboard="0"
     inkscape:deskcolor="#d1d1d1"
     inkscape:document-units="mm"
     showgrid="false"
     inkscape:zoom="0.49638341"
     inkscape:cx="393.84878"
     inkscape:cy="676.89611"
     inkscape:window-width="1920"
     inkscape:window-height="986"
     inkscape:window-x="-11"
     inkscape:window-y="-11"
     inkscape:window-maximized="1"
     inkscape:current-layer="layer1" />
  <defs
     id="defs2" />
  <g
     inkscape:label="Réteg 1"
     inkscape:groupmode="layer"
     id="layer1">
    <g
       id="g460"
       transform="translate(-15.990663,-85.283538)" />
    <g
       id="g2328">
      <g
         id="g4340">
        <path
           id="path2440"
           style="fill:#00e0e4;fill-opacity:1;stroke:none;stroke-width:1.6894;stroke-linecap:square;stroke-miterlimit:0"
           d="m 127.11449,131.63703 c -7.84038,-0.17138 -15.88234,5.56197 -15.72253,16.56938 0.16017,11.03209 15.78552,24.15368 4.64211,27.98133 0.23887,0.25497 0.49313,0.4952 0.75414,0.72852 a 29.166034,29.538368 0 0 0 10.85849,2.13375 29.166034,29.538368 0 0 0 10.12779,-1.83929 c 0.2576,-0.19286 0.51177,-0.39112 0.75796,-0.60091 -11.48157,-4.38038 3.21175,-19.69058 3.17798,-28.33579 -0.0434,-11.10417 -7.23074,-16.47598 -14.59594,-16.63699 z" />
        <path
           id="path2442"
           style="fill:#02fbff;fill-opacity:1;stroke:none;stroke-width:1.6894;stroke-linecap:square;stroke-miterlimit:0"
           d="m 126.74969,131.63322 c -3.77299,0.005 -7.56219,1.37571 -10.43316,4.03846 a 16.224567,18.864307 1.1138751 0 1 19.6034,6.76713 16.224567,18.864307 1.1138751 0 1 1.07369,18.94578 c 2.15074,-4.67719 4.73099,-9.48093 4.71681,-13.11057 -0.0434,-11.10416 -7.23075,-16.47598 -14.59594,-16.63699 -0.12165,-0.003 -0.24309,-0.004 -0.3648,-0.004 z" />
        <path
           id="path2444"
           style="fill:#00b3b5;fill-opacity:1;stroke:none;stroke-width:1.6894;stroke-linecap:square;stroke-miterlimit:0"
           d="m 112.84845,140.55426 c -0.9601,2.16983 -1.499,4.72397 -1.45649,7.65215 0.16017,11.03207 15.78551,24.15368 4.64211,27.98133 0.23676,0.25271 0.48853,0.49108 0.74705,0.72252 a 29.166034,29.538368 0 0 0 10.86558,2.13975 29.166034,29.538368 0 0 0 10.12615,-1.83821 c 0.25817,-0.19323 0.51288,-0.39175 0.7596,-0.60199 -1.03887,-0.39635 -1.86069,-0.88332 -2.50128,-1.44559 -15.24709,-2.25349 -20.19176,-18.30704 -21.59209,-21.72133 -1.2353,-3.26823 -2.12032,-6.68414 -1.59063,-12.88863 z" />
      </g>
      <ellipse
         style="fill:none;fill-opacity:1;stroke:#000000;stroke-width:1.49113;stroke-linecap:square;stroke-miterlimit:1;stroke-opacity:1"
         id="ellipse2448"
         cx="127.64679"
         cy="149.51141"
         rx="29.166035"
         ry="29.538368" />
      <g
         id="g2281">
        <path
           style="fill:#080808;fill-opacity:1;stroke:#000000;stroke-width:0.648983;stroke-dasharray:none;stroke-opacity:1;paint-order:stroke fill markers"
           d="m 115.91151,141.87317 c 1.006,-5.76823 5.4448,-2.17913 9.03692,-1.95137 -3.74142,0.11366 -7.52753,-3.89459 -9.03692,1.95137 z"
           id="path2456"
           sodipodi:nodetypes="ccc" />
        <path
           style="fill:#080808;fill-opacity:1;stroke:#000000;stroke-width:0.648983;stroke-dasharray:none;stroke-opacity:1;paint-order:stroke fill markers"
           d="m 137.5969,141.82784 c -2.59026,-3.96917 -5.96187,-2.77544 -9.03693,-1.95137 3.44765,-1.33733 6.87259,-1.59003 9.03693,1.95137 z"
           id="path2460"
           sodipodi:nodetypes="ccc" />
        <g
           id="g11858">
          <g
             id="g2454"
             transform="matrix(1.0552127,0,0,1.0552127,33.923902,-20.248393)">
            <ellipse
               style="fill:#ffffff;fill-opacity:1;stroke:#000000;stroke-width:1.22302;stroke-dasharray:none;stroke-opacity:1;paint-order:stroke fill markers"
               id="ellipse2450"
               cx="82.635651"
               cy="158.75899"
               rx="3.9489949"
               ry="4.4504542" />
            <ellipse
               style="fill:#080808;fill-opacity:1;stroke:#000000;stroke-width:0.846706;stroke-dasharray:none;stroke-opacity:1;paint-order:stroke fill markers"
               id="ellipse2452"
               cx="83.22303"
               cy="159.13904"
               rx="0.94023687"
               ry="1.0029193" />
          </g>
          <path
             id="ellipse11790"
             style="fill:#00e0e4;fill-opacity:1;stroke:#000000;stroke-width:1.29055;stroke-dasharray:none;stroke-opacity:1;paint-order:stroke fill markers"
             d="m 121.12232,142.57993 a 4.1670294,4.6961761 0 0 0 -4.15323,4.31808 h 8.30647 a 4.1670294,4.6961761 0 0 0 -4.15324,-4.31808 z" />
        </g>
        <g
           id="g11868"
           transform="matrix(-1,0,0,1,253.80874,0)">
          <g
             id="g11864"
             transform="matrix(1.0552127,0,0,1.0552127,33.923902,-20.248393)">
            <ellipse
               style="fill:#ffffff;fill-opacity:1;stroke:#000000;stroke-width:1.22302;stroke-dasharray:none;stroke-opacity:1;paint-order:stroke fill markers"
               id="ellipse11860"
               cx="82.635651"
               cy="158.75899"
               rx="3.9489949"
               ry="4.4504542" />
            <ellipse
               style="fill:#080808;fill-opacity:1;stroke:#000000;stroke-width:0.846706;stroke-dasharray:none;stroke-opacity:1;paint-order:stroke fill markers"
               id="ellipse11862"
               cx="83.22303"
               cy="159.13904"
               rx="0.94023687"
               ry="1.0029193" />
          </g>
          <path
             id="path11866"
             style="fill:#00e0e4;fill-opacity:1;stroke:#000000;stroke-width:1.29055;stroke-dasharray:none;stroke-opacity:1;paint-order:stroke fill markers"
             d="m 121.12232,142.57993 a 4.1670294,4.6961761 0 0 0 -4.15323,4.31808 h 8.30647 a 4.1670294,4.6961761 0 0 0 -4.15324,-4.31808 z" />
        </g>
        <g
           id="g2240">
          <path
             style="fill:#080808;fill-opacity:1;stroke:#000000;stroke-width:1.01334;stroke-dasharray:none;stroke-opacity:1;paint-order:stroke fill markers"
             d="m 121.18664,155.87687 c -0.21154,4.99323 8.09606,3.35921 10.87487,0.83591 -2.47585,2.20343 -10.1703,0.85719 -10.87487,-0.83591 z"
             id="path2458"
             sodipodi:nodetypes="ccc" />
          <path
             style="fill:#ffffff;fill-opacity:1;stroke-width:1.601;stroke-linecap:square;stroke-miterlimit:0;-inkscape-stroke:none;stop-color:#000000"
             d="m 121.37913,156.50861 c 0.19028,2.08565 3.71888,3.63587 7.76213,1.49913 -3.5012,0.25622 -6.17151,-0.32485 -7.76213,-1.49913 z"
             id="path17848"
             sodipodi:nodetypes="ccc" />
          <g
             id="g2212">
            <g
               id="g2187">
              <g
                 id="g2155">
                <path
                   sodipodi:type="star"
                   style="fill:#2b9100;fill-opacity:1;stroke-width:1.601;stroke-linecap:square;stroke-miterlimit:0;-inkscape-stroke:none;stop-color:#000000"
                   id="path2110"
                   inkscape:flatsided="true"
                   sodipodi:sides="3"
                   sodipodi:cx="149.64595"
                   sodipodi:cy="157.4081"
                   sodipodi:r1="0.73762232"
                   sodipodi:r2="0.36881113"
                   sodipodi:arg1="0"
                   sodipodi:arg2="1.0471976"
                   inkscape:rounded="0"
                   inkscape:randomized="0"
                   d="m 150.38357,157.4081 -1.10643,0.6388 v -1.2776 z"
                   inkscape:transform-center-x="-0.18439961"
                   inkscape:transform-center-y="2.0218144e-06"
                   transform="matrix(0,1,1,0,-36.712833,9.0898161)" />
                <path
                   sodipodi:type="star"
                   style="fill:#2b9100;fill-opacity:1;stroke-width:1.601;stroke-linecap:square;stroke-miterlimit:0;-inkscape-stroke:none;stop-color:#000000"
                   id="path2112"
                   inkscape:flatsided="true"
                   sodipodi:sides="3"
                   sodipodi:cx="149.64595"
                   sodipodi:cy="157.4081"
                   sodipodi:r1="0.73762232"
                   sodipodi:r2="0.36881113"
                   sodipodi:arg1="0"
                   sodipodi:arg2="1.0471976"
                   inkscape:rounded="0"
                   inkscape:randomized="0"
                   d="m 150.38357,157.4081 -1.10643,0.6388 v -1.2776 z"
                   inkscape:transform-center-x="0.18440368"
                   inkscape:transform-center-y="6.2218145e-06"
                   transform="rotate(-90,133.99921,172.71204)" />
                <path
                   id="path2118"
                   style="fill:#37bb00;fill-opacity:1;stroke-width:2.21271;stroke-linecap:square;stroke-miterlimit:0;-inkscape-stroke:none;stop-color:#000000"
                   d="M 117.63106 157.38057 L 117.63106 158.44097 L 121.87318 158.44097 L 122.70052 157.92318 L 122.70052 157.88545 L 121.87421 157.38057 L 117.63106 157.38057 z " />
              </g>
              <g
                 id="g2127">
                <path
                   sodipodi:type="star"
                   style="fill:#2b9100;fill-opacity:1;stroke-width:1.601;stroke-linecap:square;stroke-miterlimit:0;-inkscape-stroke:none;stop-color:#000000"
                   id="path1980"
                   inkscape:flatsided="true"
                   sodipodi:sides="3"
                   sodipodi:cx="149.64595"
                   sodipodi:cy="157.4081"
                   sodipodi:r1="0.73762232"
                   sodipodi:r2="0.36881113"
                   sodipodi:arg1="0"
                   sodipodi:arg2="1.0471976"
                   inkscape:rounded="0"
                   inkscape:randomized="0"
                   d="m 150.38357,157.4081 -1.10643,0.6388 v -1.2776 z"
                   inkscape:transform-center-x="0.1843996"
                   inkscape:transform-center-y="-1.983094e-06"
                   transform="matrix(0,-1,-1,0,287.94476,307.00781)" />
                <path
                   sodipodi:type="star"
                   style="fill:#2b9100;fill-opacity:1;stroke-width:1.601;stroke-linecap:square;stroke-miterlimit:0;-inkscape-stroke:none;stop-color:#000000"
                   id="path1978"
                   inkscape:flatsided="true"
                   sodipodi:sides="3"
                   sodipodi:cx="149.64595"
                   sodipodi:cy="157.4081"
                   sodipodi:r1="0.73762232"
                   sodipodi:r2="0.36881113"
                   sodipodi:arg1="0"
                   sodipodi:arg2="1.0471976"
                   inkscape:rounded="0"
                   inkscape:randomized="0"
                   d="m 150.38357,157.4081 -1.10643,0.6388 v -1.2776 z"
                   inkscape:transform-center-x="-0.18440369"
                   inkscape:transform-center-y="-1.983094e-06"
                   transform="rotate(90,140.27919,149.66557)" />
                <path
                   sodipodi:type="star"
                   style="fill:#2b9100;fill-opacity:1;stroke-width:1.601;stroke-linecap:square;stroke-miterlimit:0;-inkscape-stroke:none;stop-color:#000000"
                   id="path1927"
                   inkscape:flatsided="true"
                   sodipodi:sides="3"
                   sodipodi:cx="149.64595"
                   sodipodi:cy="157.4081"
                   sodipodi:r1="0.73762232"
                   sodipodi:r2="0.36881113"
                   sodipodi:arg1="0"
                   sodipodi:arg2="1.0471976"
                   inkscape:rounded="0"
                   inkscape:randomized="0"
                   d="m 150.38357,157.4081 -1.10643,0.6388 v -1.2776 z"
                   inkscape:transform-center-x="0.1843996"
                   inkscape:transform-center-y="-1.983094e-06"
                   transform="matrix(0,-1,-1,0,291.04476,307.00781)" />
                <path
                   sodipodi:type="star"
                   style="fill:#2b9100;fill-opacity:1;stroke-width:1.601;stroke-linecap:square;stroke-miterlimit:0;-inkscape-stroke:none;stop-color:#000000"
                   id="path1925"
                   inkscape:flatsided="true"
                   sodipodi:sides="3"
                   sodipodi:cx="149.64595"
                   sodipodi:cy="157.4081"
                   sodipodi:r1="0.73762232"
                   sodipodi:r2="0.36881113"
                   sodipodi:arg1="0"
                   sodipodi:arg2="1.0471976"
                   inkscape:rounded="0"
                   inkscape:randomized="0"
                   d="m 150.38357,157.4081 -1.10643,0.6388 v -1.2776 z"
                   inkscape:transform-center-x="-0.18440369"
                   inkscape:transform-center-y="-1.983094e-06"
                   transform="rotate(90,141.67919,151.06557)" />
                <path
                   id="rect1733"
                   style="fill:#37bb00;fill-opacity:1;stroke-width:2.21271;stroke-linecap:square;stroke-miterlimit:0;-inkscape-stroke:none;stop-color:#000000"
                   d="m 157.65653,-129.35851 0.51779,0.82734 h 0.0377 l 0.50488,-0.82631 v -8.26306 h -1.0604 z"
                   transform="rotate(90)" />
                <path
                   style="fill:#37bb00;fill-opacity:1;stroke-width:4.67845;stroke-linecap:square;stroke-miterlimit:0;-inkscape-stroke:none;stop-color:#000000"
                   d="m 136.42397,162.43063 c 1.38879,-0.52491 3.8352,-2.94295 1.90289,-4.0271 -2.20145,-0.98851 -2.49962,2.64904 -1.90289,4.0271 z"
                   id="path1679"
                   sodipodi:nodetypes="ccc" />
                <path
                   style="fill:#37bb00;fill-opacity:1;stroke-width:4.67845;stroke-linecap:square;stroke-miterlimit:0;-inkscape-stroke:none;stop-color:#000000"
                   d="m 136.65571,153.63748 c 1.32484,0.67011 3.49924,3.33542 1.46227,4.20717 -2.29437,0.74795 -2.20265,-2.90065 -1.46227,-4.20717 z"
                   id="path1677"
                   sodipodi:nodetypes="ccc" />
              </g>
            </g>
            <g
               id="g1946"
               transform="rotate(90,141.95649,151.01897)">
              <path
                 id="path1139"
                 style="fill:#be0000;fill-opacity:1;stroke-width:2.78799;stroke-linecap:square;stroke-miterlimit:0;-inkscape-stroke:none;stop-color:#000000"
                 d="m 147.59262,148.18901 c -2.88339,1.90016 -2.95285,6.67728 1.54956,6.72986 4.34892,0.12394 4.17776,-4.61363 1.3163,-6.63178 h -2.86586 z" />
              <path
                 style="fill:#ff0101;fill-opacity:1;stroke-width:3.93985;stroke-linecap:square;stroke-miterlimit:0;-inkscape-stroke:none;stop-color:#000000"
                 d="m 147.47987,148.97304 c -1.2872,-1.78994 5.02978,-1.41107 2.91031,0.082 -0.84631,-0.95577 -1.84626,-0.75932 -2.91031,-0.082 z"
                 id="path1481"
                 sodipodi:nodetypes="ccc" />
              <path
                 style="fill:#ff0101;fill-opacity:1;stroke-width:2.55358;stroke-linecap:square;stroke-miterlimit:0;-inkscape-stroke:none;stop-color:#000000"
                 d="m 146.02534,149.96103 c -3.04018,1.66829 1.80567,3.87973 6.21683,1.85972 -5.45634,-0.0882 -5.98663,-0.94162 -6.21683,-1.85972 z"
                 id="path379"
                 sodipodi:nodetypes="ccc" />
              <path
                 style="fill:#ff0101;fill-opacity:1;stroke-width:2.55358;stroke-linecap:square;stroke-miterlimit:0;-inkscape-stroke:none;stop-color:#000000"
                 d="m 151.91008,149.86801 c 2.34363,0.97377 1.25495,2.58155 -4.05158,1.34167 1.43476,-0.40726 3.9383,0.38709 4.05158,-1.34167 z"
                 id="path1195"
                 sodipodi:nodetypes="ccc" />
              <path
                 style="fill:#ff0101;fill-opacity:1;stroke-width:2.55358;stroke-linecap:square;stroke-miterlimit:0;-inkscape-stroke:none;stop-color:#000000"
                 d="m 149.90422,150.27983 c -1.31331,0.52882 -1.92137,-0.53197 -3.26783,-1.16896 -2.41856,0.9608 1.81529,2.71998 3.26783,1.16896 z"
                 id="path1473"
                 sodipodi:nodetypes="ccc" />
              <path
                 style="fill:#ff0101;fill-opacity:1;stroke-width:2.55358;stroke-linecap:square;stroke-miterlimit:0;-inkscape-stroke:none;stop-color:#000000"
                 d="m 149.26659,150.91745 c 0.93741,-0.73169 2.29105,-1.31399 1.70034,-2.17855 2.0338,0.0493 0.79174,2.54386 -1.70034,2.17855 z"
                 id="path1475"
                 sodipodi:nodetypes="ccc" />
              <path
                 style="fill:#ff0101;fill-opacity:1;stroke-width:2.55358;stroke-linecap:square;stroke-miterlimit:0;-inkscape-stroke:none;stop-color:#000000"
                 d="m 147.5397,149.32338 c 1.47599,0.2893 3.27368,-0.42806 2.73646,-1.22211 1.99329,0.44334 -0.38344,3.3003 -2.73646,1.22211 z"
                 id="path1477"
                 sodipodi:nodetypes="ccc" />
              <path
                 style="fill:#ff0101;fill-opacity:1;stroke-width:2.55358;stroke-linecap:square;stroke-miterlimit:0;-inkscape-stroke:none;stop-color:#000000"
                 d="m 147.6991,148.0747 c -2.59891,0.79279 0.17794,1.8991 2.33795,0.61105 -1.04347,-0.0128 -2.48839,0.26412 -2.33795,-0.61105 z"
                 id="path1479"
                 sodipodi:nodetypes="ccc" />
              <path
                 style="fill:#2b9100;fill-opacity:1;stroke-width:1.601;stroke-linecap:square;stroke-miterlimit:0;-inkscape-stroke:none;stop-color:#000000"
                 d="m 147.07196,154.43971 c 1.10945,1.3701 3.46528,1.31503 4.31018,-0.0726 -1.82539,0.67847 -2.68307,0.4664 -4.31018,0.0726 z"
                 id="path1621"
                 sodipodi:nodetypes="ccc" />
            </g>
          </g>
        </g>
      </g>
    </g>
  </g>
</svg>
