<?xml version="1.0" encoding="UTF-8" standalone="no"?>
<!-- Created with Inkscape (http://www.inkscape.org/) -->

<svg
   width="210mm"
   height="297mm"
   viewBox="0 0 210 297"
   version="1.1"
   id="svg5"
   inkscape:version="1.2.2 (732a01da63, 2022-12-09)"
   sodipodi:docname="p_profilkep.svg"
   xmlns:inkscape="http://www.inkscape.org/namespaces/inkscape"
   xmlns:sodipodi="http://sodipodi.sourceforge.net/DTD/sodipodi-0.dtd"
   xmlns="http://www.w3.org/2000/svg"
   xmlns:svg="http://www.w3.org/2000/svg">
  <sodipodi:namedview
     id="namedview7"
     pagecolor="#ffffff"
     bordercolor="#000000"
     borderopacity="0.25"
     inkscape:showpageshadow="2"
     inkscape:pageopacity="0.0"
     inkscape:pagecheckerboard="0"
     inkscape:deskcolor="#d1d1d1"
     inkscape:document-units="mm"
     showgrid="false"
     inkscape:zoom="0.49638341"
     inkscape:cx="476.44622"
     inkscape:cy="388.81235"
     inkscape:window-width="1920"
     inkscape:window-height="986"
     inkscape:window-x="-11"
     inkscape:window-y="-11"
     inkscape:window-maximized="1"
     inkscape:current-layer="layer1" />
  <defs
     id="defs2" />
  <g
     inkscape:label="Réteg 1"
     inkscape:groupmode="layer"
     id="layer1">
    <g
       id="g460"
       transform="translate(-15.990663,-85.283538)" />
    <g
       id="g9251">
      <g
         id="g3535">
        <path
           id="path2504"
           style="fill:#ff0202;fill-opacity:1;stroke:none;stroke-width:1.6894;stroke-linecap:square;stroke-miterlimit:0"
           d="m 129.24658,209.45826 c -7.84039,-0.17138 -15.88234,5.56197 -15.72253,16.56938 0.16017,11.03209 15.78552,24.15368 4.64211,27.98133 0.23887,0.25497 0.49313,0.4952 0.75414,0.72852 a 29.166034,29.538368 0 0 0 10.85848,2.13374 29.166034,29.538368 0 0 0 10.1278,-1.83928 c 0.2576,-0.19287 0.51177,-0.39112 0.75796,-0.60092 -11.48157,-4.38037 3.21175,-19.69057 3.17798,-28.33578 -0.0434,-11.10417 -7.23074,-16.47599 -14.59594,-16.63699 z" />
        <path
           id="path2506"
           style="fill:#ff4a4a;fill-opacity:1;stroke:none;stroke-width:1.6894;stroke-linecap:square;stroke-miterlimit:0"
           d="m 128.88178,209.45445 c -3.77299,0.005 -7.56219,1.37571 -10.43316,4.03846 a 16.224567,18.864307 1.1138751 0 1 19.6034,6.76713 16.224567,18.864307 1.1138751 0 1 1.07369,18.94577 c 2.15073,-4.67718 4.73099,-9.48092 4.71681,-13.11056 -0.0434,-11.10416 -7.23075,-16.47599 -14.59594,-16.63699 -0.12165,-0.003 -0.24309,-0.004 -0.3648,-0.004 z" />
        <path
           id="path2508"
           style="fill:#c50000;fill-opacity:1;stroke:none;stroke-width:1.6894;stroke-linecap:square;stroke-miterlimit:0"
           d="m 114.98054,218.37549 c -0.96011,2.16983 -1.499,4.72397 -1.45649,7.65215 0.16017,11.03207 15.78551,24.15368 4.64211,27.98133 0.23676,0.25271 0.48853,0.49107 0.74705,0.72251 a 29.166034,29.538368 0 0 0 10.86557,2.13975 29.166034,29.538368 0 0 0 10.12616,-1.8382 c 0.25817,-0.19323 0.51288,-0.39176 0.7596,-0.602 -1.03887,-0.39634 -1.86069,-0.88331 -2.50128,-1.44558 -15.24709,-2.2535 -20.19176,-18.30704 -21.5921,-21.72134 -1.23529,-3.26822 -2.12032,-6.68414 -1.59062,-12.88862 z" />
      </g>
      <ellipse
         style="fill:none;fill-opacity:1;stroke:#000000;stroke-width:1.49113;stroke-linecap:square;stroke-miterlimit:1;stroke-opacity:1"
         id="ellipse2512"
         cx="129.77888"
         cy="227.33264"
         rx="29.166035"
         ry="29.538368" />
      <g
         id="g9230">
        <path
           style="fill:#080808;fill-opacity:1;stroke:#000000;stroke-width:1.01334;stroke-dasharray:none;stroke-opacity:1;paint-order:stroke fill markers"
           d="m 126.05128,235.06437 c 2.14411,1.74244 3.47899,2.32273 6.2578,-0.20058 -2.47585,2.20343 -3.29181,2.31769 -6.2578,0.20058 z"
           id="path2522"
           sodipodi:nodetypes="ccc" />
        <g
           id="g8386">
          <ellipse
             style="fill:#ffffff;fill-opacity:1;stroke:#000000;stroke-width:1.29055;stroke-dasharray:none;stroke-opacity:1;paint-order:stroke fill markers"
             id="ellipse2514"
             cx="123.25418"
             cy="225.09734"
             rx="4.1670294"
             ry="4.6961761" />
          <ellipse
             style="fill:#080808;fill-opacity:1;stroke:#000000;stroke-width:0.893455;stroke-dasharray:none;stroke-opacity:1;paint-order:stroke fill markers"
             id="ellipse2516"
             cx="124.43888"
             cy="225.49837"
             rx="0.99214989"
             ry="1.0582932" />
          <path
             id="ellipse7980"
             style="fill:#ff0202;fill-opacity:1;stroke:#000000;stroke-width:1.29055;stroke-dasharray:none;stroke-opacity:1;paint-order:stroke fill markers"
             d="m 123.25398,220.40102 a 4.1670294,4.6961761 0 0 0 -3.78892,2.74815 h 7.58093 a 4.1670294,4.6961761 0 0 0 -3.79201,-2.74815 z" />
          <path
             style="fill:#000000;fill-opacity:1;stroke-width:1.601;stroke-linecap:square;stroke-miterlimit:0;-inkscape-stroke:none;stop-color:#000000"
             d="m 129.03435,224.55029 c -1.20754,-2.58553 -3.6859,-5.42496 -6.71036,-6.94475 -0.83956,0.23076 -3.04966,1.24504 -3.68517,2.15267 4.05242,1.38727 7.98626,2.97099 10.39553,4.79208 z"
             id="path7708"
             sodipodi:nodetypes="cccc" />
          <path
             id="path8376"
             style="fill:#c50000;fill-opacity:1;stroke:#000000;stroke-width:1.29055;stroke-dasharray:none;stroke-opacity:1;paint-order:stroke fill markers"
             d="M 120.8996 228.96897 A 4.1670294 4.6961761 0 0 0 123.25398 229.79373 A 4.1670294 4.6961761 0 0 0 125.60835 228.96897 L 120.8996 228.96897 z " />
        </g>
        <g
           id="g8398"
           transform="matrix(-1,0,0,1,257.53435,0)">
          <ellipse
             style="fill:#ffffff;fill-opacity:1;stroke:#000000;stroke-width:1.29055;stroke-dasharray:none;stroke-opacity:1;paint-order:stroke fill markers"
             id="ellipse8388"
             cx="123.25418"
             cy="225.09734"
             rx="4.1670294"
             ry="4.6961761" />
          <ellipse
             style="fill:#080808;fill-opacity:1;stroke:#000000;stroke-width:0.893455;stroke-dasharray:none;stroke-opacity:1;paint-order:stroke fill markers"
             id="ellipse8390"
             cx="124.43888"
             cy="225.49837"
             rx="0.99214989"
             ry="1.0582932" />
          <path
             id="path8392"
             style="fill:#ff0202;fill-opacity:1;stroke:#000000;stroke-width:1.29055;stroke-dasharray:none;stroke-opacity:1;paint-order:stroke fill markers"
             d="m 123.25398,220.40102 a 4.1670294,4.6961761 0 0 0 -3.78892,2.74815 h 7.58093 a 4.1670294,4.6961761 0 0 0 -3.79201,-2.74815 z" />
          <path
             style="fill:#000000;fill-opacity:1;stroke-width:1.601;stroke-linecap:square;stroke-miterlimit:0;-inkscape-stroke:none;stop-color:#000000"
             d="m 129.03435,224.55029 c -1.20754,-2.58553 -3.6859,-5.42496 -6.71036,-6.94475 -0.83956,0.23076 -3.04966,1.24504 -3.68517,2.15267 4.05242,1.38727 7.98626,2.97099 10.39553,4.79208 z"
             id="path8394"
             sodipodi:nodetypes="cccc" />
          <path
             id="path8396"
             style="fill:#c50000;fill-opacity:1;stroke:#000000;stroke-width:1.29055;stroke-dasharray:none;stroke-opacity:1;paint-order:stroke fill markers"
             d="m 120.8996,228.96897 a 4.1670294,4.6961761 0 0 0 2.35438,0.82476 4.1670294,4.6961761 0 0 0 2.35437,-0.82476 z" />
        </g>
      </g>
    </g>
  </g>
</svg>
