<?xml version="1.0" encoding="UTF-8" standalone="no"?>
<!-- Created with Inkscape (http://www.inkscape.org/) -->

<svg
   width="210mm"
   height="297mm"
   viewBox="0 0 210 297"
   version="1.1"
   id="svg5"
   inkscape:version="1.2.2 (732a01da63, 2022-12-09)"
   sodipodi:docname="z_profilkep.svg"
   xmlns:inkscape="http://www.inkscape.org/namespaces/inkscape"
   xmlns:sodipodi="http://sodipodi.sourceforge.net/DTD/sodipodi-0.dtd"
   xmlns="http://www.w3.org/2000/svg"
   xmlns:svg="http://www.w3.org/2000/svg">
  <sodipodi:namedview
     id="namedview7"
     pagecolor="#ffffff"
     bordercolor="#000000"
     borderopacity="0.25"
     inkscape:showpageshadow="2"
     inkscape:pageopacity="0.0"
     inkscape:pagecheckerboard="0"
     inkscape:deskcolor="#d1d1d1"
     inkscape:document-units="mm"
     showgrid="false"
     inkscape:zoom="0.49638341"
     inkscape:cx="452.27136"
     inkscape:cy="654.73582"
     inkscape:window-width="1920"
     inkscape:window-height="986"
     inkscape:window-x="-11"
     inkscape:window-y="-11"
     inkscape:window-maximized="1"
     inkscape:current-layer="layer1" />
  <defs
     id="defs2" />
  <g
     inkscape:label="Réteg 1"
     inkscape:groupmode="layer"
     id="layer1">
    <g
       id="g460"
       transform="translate(-15.990663,-85.283538)" />
    <g
       id="g11920">
      <g
         id="g468"
         transform="matrix(1.0552127,0,0,1.0552127,-53.79042,-5.5952191)">
        <path
           id="path462"
           style="fill:#4dbc00;fill-opacity:1;stroke:none;stroke-width:1.601;stroke-linecap:square;stroke-miterlimit:0"
           d="m 103.24641,129.54661 c -7.430144,-0.16241 -15.051316,5.27095 -14.899865,15.70241 0.151791,10.45485 14.959565,22.88987 4.399215,26.51724 0.226375,0.24163 0.467327,0.46929 0.714685,0.6904 a 27.639957,27.992809 0 0 0 10.290325,2.0221 27.639957,27.992809 0 0 0 9.59787,-1.74305 c 0.24412,-0.18277 0.48499,-0.37065 0.7183,-0.56947 -10.88081,-4.15118 3.0437,-18.66029 3.0117,-26.85315 -0.0411,-10.52316 -6.8524,-15.6139 -13.83223,-15.76648 z" />
        <path
           id="path464"
           style="fill:#59df00;fill-opacity:1;stroke:none;stroke-width:1.601;stroke-linecap:square;stroke-miterlimit:0"
           d="m 102.9007,129.543 c -3.575573,0.005 -7.166509,1.30373 -9.887256,3.82715 a 15.375637,17.877255 1.1138751 0 1 18.577676,6.41305 15.375637,17.877255 1.1138751 0 1 1.01751,17.95446 c 2.0382,-4.43246 4.48345,-8.98485 4.47001,-12.42457 -0.0411,-10.52315 -6.85241,-15.6139 -13.83223,-15.76648 -0.11528,-0.003 -0.23037,-0.004 -0.34571,-0.004 z" />
        <path
           id="path466"
           style="fill:#008000;fill-opacity:1;stroke:none;stroke-width:1.601;stroke-linecap:square;stroke-miterlimit:0"
           d="m 89.726823,137.99726 c -0.909866,2.05629 -1.420566,4.47679 -1.380278,7.25176 0.151791,10.45483 14.959555,22.88987 4.399215,26.51724 0.224374,0.23949 0.462971,0.46538 0.707967,0.68471 a 27.639957,27.992809 0 0 0 10.297043,2.02779 27.639957,27.992809 0 0 0 9.59632,-1.74202 c 0.24466,-0.18312 0.48604,-0.37126 0.71985,-0.5705 -0.98451,-0.37561 -1.76333,-0.8371 -2.3704,-1.36995 -14.449308,-2.13558 -19.135252,-17.34914 -20.462316,-20.58479 -1.17066,-3.09722 -2.009377,-6.3344 -1.507401,-12.21424 z" />
      </g>
      <ellipse
         style="fill:none;fill-opacity:1;stroke:#000000;stroke-width:1.49113;stroke-linecap:square;stroke-miterlimit:1;stroke-opacity:1"
         id="ellipse494"
         cx="55.688805"
         cy="148.97839"
         rx="29.166035"
         ry="29.538368" />
      <g
         id="g11903">
        <g
           id="g539"
           transform="matrix(1.0552127,0,0,1.0552127,-38.034083,-20.781415)">
          <ellipse
             style="fill:#ffffff;fill-opacity:1;stroke:#000000;stroke-width:1.22302;stroke-dasharray:none;stroke-opacity:1;paint-order:stroke fill markers"
             id="ellipse470"
             cx="82.635651"
             cy="158.75899"
             rx="3.9489949"
             ry="4.4504542" />
          <ellipse
             style="fill:#080808;fill-opacity:1;stroke:#000000;stroke-width:0.846706;stroke-dasharray:none;stroke-opacity:1;paint-order:stroke fill markers"
             id="ellipse472"
             cx="83.22303"
             cy="159.13904"
             rx="0.94023687"
             ry="1.0029193" />
        </g>
        <path
           style="fill:#080808;fill-opacity:1;stroke:#000000;stroke-width:0.648983;stroke-dasharray:none;stroke-opacity:1;paint-order:stroke fill markers"
           d="m 43.953521,141.34015 c 2.590267,-3.96917 5.961874,-2.77544 9.036928,-1.95137 -3.447644,-1.33733 -6.872593,-1.59003 -9.036928,1.95137 z"
           id="path486"
           sodipodi:nodetypes="ccc" />
        <path
           style="fill:#080808;fill-opacity:1;stroke:#000000;stroke-width:1.01334;stroke-dasharray:none;stroke-opacity:1;paint-order:stroke fill markers"
           d="m 50.076687,156.09765 c 2.144111,1.74244 7.248027,2.60541 10.026841,0.0821 -2.475853,2.20343 -7.060852,2.03501 -10.026841,-0.0821 z"
           id="path488"
           sodipodi:nodetypes="ccc" />
        <path
           style="fill:#080808;fill-opacity:1;stroke:#000000;stroke-width:0.648983;stroke-dasharray:none;stroke-opacity:1;paint-order:stroke fill markers"
           d="m 65.638912,141.34056 c -2.590262,-3.96916 -5.961867,-2.77543 -9.036926,-1.95136 3.447644,-1.33733 6.87259,-1.59004 9.036926,1.95136 z"
           id="path490"
           sodipodi:nodetypes="ccc" />
        <g
           id="g545"
           transform="matrix(-1.0552127,0,0,1.0552127,147.89256,-20.781051)">
          <ellipse
             style="fill:#ffffff;fill-opacity:1;stroke:#000000;stroke-width:1.22302;stroke-dasharray:none;stroke-opacity:1;paint-order:stroke fill markers"
             id="ellipse541"
             cx="82.635651"
             cy="158.75899"
             rx="3.9489949"
             ry="4.4504542" />
          <ellipse
             style="fill:#080808;fill-opacity:1;stroke:#000000;stroke-width:0.846706;stroke-dasharray:none;stroke-opacity:1;paint-order:stroke fill markers"
             id="ellipse543"
             cx="83.22303"
             cy="159.13904"
             rx="0.94023687"
             ry="1.0029193" />
        </g>
      </g>
    </g>
  </g>
</svg>
