<?xml version="1.0" encoding="UTF-8" standalone="no"?>
<!-- Created with Inkscape (http://www.inkscape.org/) -->

<svg
   width="340mm"
   height="190mm"
   viewBox="0 0 340 190"
   version="1.1"
   id="svg5"
   inkscape:version="1.2.2 (732a01da63, 2022-12-09)"
   sodipodi:docname="platform1.6.svg"
   xmlns:inkscape="http://www.inkscape.org/namespaces/inkscape"
   xmlns:sodipodi="http://sodipodi.sourceforge.net/DTD/sodipodi-0.dtd"
   xmlns="http://www.w3.org/2000/svg"
   xmlns:svg="http://www.w3.org/2000/svg">
  <sodipodi:namedview
     id="namedview7"
     pagecolor="#ffffff"
     bordercolor="#000000"
     borderopacity="0.25"
     inkscape:showpageshadow="2"
     inkscape:pageopacity="0.0"
     inkscape:pagecheckerboard="0"
     inkscape:deskcolor="#d1d1d1"
     inkscape:document-units="mm"
     showgrid="false"
     inkscape:zoom="0.525"
     inkscape:cx="612.38095"
     inkscape:cy="148.57143"
     inkscape:window-width="1920"
     inkscape:window-height="986"
     inkscape:window-x="-11"
     inkscape:window-y="-11"
     inkscape:window-maximized="1"
     inkscape:current-layer="layer1" />
  <defs
     id="defs2">
    <filter
       style="color-interpolation-filters:sRGB;"
       inkscape:label="Feather"
       id="filter21058"
       x="-0.17637796"
       y="-0.2070524"
       width="1.3527559"
       height="1.4141048">
      <feGaussianBlur
         stdDeviation="2"
         result="blur"
         id="feGaussianBlur21050" />
      <feComposite
         in="SourceGraphic"
         in2="blur"
         operator="atop"
         result="composite1"
         id="feComposite21052" />
      <feComposite
         in2="composite1"
         operator="in"
         result="composite2"
         id="feComposite21054" />
      <feComposite
         in2="composite2"
         operator="in"
         result="composite3"
         id="feComposite21056" />
    </filter>
    <filter
       style="color-interpolation-filters:sRGB;"
       inkscape:label="Feather"
       id="filter21068"
       x="-0.17637796"
       y="-0.2070524"
       width="1.3527559"
       height="1.4141048">
      <feGaussianBlur
         stdDeviation="2"
         result="blur"
         id="feGaussianBlur21060" />
      <feComposite
         in="SourceGraphic"
         in2="blur"
         operator="atop"
         result="composite1"
         id="feComposite21062" />
      <feComposite
         in2="composite1"
         operator="in"
         result="composite2"
         id="feComposite21064" />
      <feComposite
         in2="composite2"
         operator="in"
         result="composite3"
         id="feComposite21066" />
    </filter>
    <filter
       style="color-interpolation-filters:sRGB;"
       inkscape:label="Feather"
       id="filter21078"
       x="-0.17637796"
       y="-0.2070524"
       width="1.3527559"
       height="1.4141048">
      <feGaussianBlur
         stdDeviation="2"
         result="blur"
         id="feGaussianBlur21070" />
      <feComposite
         in="SourceGraphic"
         in2="blur"
         operator="atop"
         result="composite1"
         id="feComposite21072" />
      <feComposite
         in2="composite1"
         operator="in"
         result="composite2"
         id="feComposite21074" />
      <feComposite
         in2="composite2"
         operator="in"
         result="composite3"
         id="feComposite21076" />
    </filter>
    <filter
       style="color-interpolation-filters:sRGB;"
       inkscape:label="Feather"
       id="filter21088"
       x="-0.17637796"
       y="-0.2070524"
       width="1.3527559"
       height="1.4141048">
      <feGaussianBlur
         stdDeviation="2"
         result="blur"
         id="feGaussianBlur21080" />
      <feComposite
         in="SourceGraphic"
         in2="blur"
         operator="atop"
         result="composite1"
         id="feComposite21082" />
      <feComposite
         in2="composite1"
         operator="in"
         result="composite2"
         id="feComposite21084" />
      <feComposite
         in2="composite2"
         operator="in"
         result="composite3"
         id="feComposite21086" />
    </filter>
    <filter
       style="color-interpolation-filters:sRGB"
       inkscape:label="Feather"
       id="filter21088-3"
       x="-0.17637796"
       y="-0.2070524"
       width="1.3527559"
       height="1.4141048">
      <feGaussianBlur
         stdDeviation="2"
         result="blur"
         id="feGaussianBlur21080-6" />
      <feComposite
         in="SourceGraphic"
         in2="blur"
         operator="atop"
         result="composite1"
         id="feComposite21082-3" />
      <feComposite
         in2="composite1"
         operator="in"
         result="composite2"
         id="feComposite21084-6" />
      <feComposite
         in2="composite2"
         operator="in"
         result="composite3"
         id="feComposite21086-7" />
    </filter>
    <filter
       style="color-interpolation-filters:sRGB"
       inkscape:label="Feather"
       id="filter21078-7"
       x="-0.17637796"
       y="-0.2070524"
       width="1.3527559"
       height="1.4141048">
      <feGaussianBlur
         stdDeviation="2"
         result="blur"
         id="feGaussianBlur21070-3" />
      <feComposite
         in="SourceGraphic"
         in2="blur"
         operator="atop"
         result="composite1"
         id="feComposite21072-4" />
      <feComposite
         in2="composite1"
         operator="in"
         result="composite2"
         id="feComposite21074-5" />
      <feComposite
         in2="composite2"
         operator="in"
         result="composite3"
         id="feComposite21076-3" />
    </filter>
    <filter
       style="color-interpolation-filters:sRGB"
       inkscape:label="Feather"
       id="filter21058-2"
       x="-0.17637796"
       y="-0.2070524"
       width="1.3527559"
       height="1.4141048">
      <feGaussianBlur
         stdDeviation="2"
         result="blur"
         id="feGaussianBlur21050-4" />
      <feComposite
         in="SourceGraphic"
         in2="blur"
         operator="atop"
         result="composite1"
         id="feComposite21052-3" />
      <feComposite
         in2="composite1"
         operator="in"
         result="composite2"
         id="feComposite21054-5" />
      <feComposite
         in2="composite2"
         operator="in"
         result="composite3"
         id="feComposite21056-9" />
    </filter>
    <filter
       style="color-interpolation-filters:sRGB"
       inkscape:label="Feather"
       id="filter21068-4"
       x="-0.17637796"
       y="-0.2070524"
       width="1.3527559"
       height="1.4141048">
      <feGaussianBlur
         stdDeviation="2"
         result="blur"
         id="feGaussianBlur21060-2" />
      <feComposite
         in="SourceGraphic"
         in2="blur"
         operator="atop"
         result="composite1"
         id="feComposite21062-3" />
      <feComposite
         in2="composite1"
         operator="in"
         result="composite2"
         id="feComposite21064-9" />
      <feComposite
         in2="composite2"
         operator="in"
         result="composite3"
         id="feComposite21066-9" />
    </filter>
  </defs>
  <g
     inkscape:label="Réteg 1"
     inkscape:groupmode="layer"
     id="layer1">
    <g
       id="g3508"
       transform="matrix(0.99104028,0,0,1,1.4301382,0)">
      <rect
         style="fill:#855009;fill-opacity:1;stroke-width:0.431931;stroke-linecap:square;stroke-miterlimit:0"
         id="rect3195"
         width="31.058365"
         height="5.2729001"
         x="160.09036"
         y="110.84118"
         rx="1.0352788"
         ry="1.7576333" />
      <circle
         style="fill:#5e3807;fill-opacity:1;stroke-width:0.562794;stroke-linecap:square;stroke-miterlimit:0"
         id="circle3201"
         cx="171.94011"
         cy="114.35221"
         r="0.81975025" />
      <circle
         style="fill:#5e3807;fill-opacity:1;stroke-width:0.562794;stroke-linecap:square;stroke-miterlimit:0"
         id="circle3203"
         cx="179.49213"
         cy="112.69607"
         r="0.81975025" />
      <circle
         style="fill:#5e3807;fill-opacity:1;stroke-width:0.321597;stroke-linecap:square;stroke-miterlimit:0"
         id="circle3211"
         cx="161.60576"
         cy="115.2134"
         r="0.46842867" />
      <circle
         style="fill:#5e3807;fill-opacity:1;stroke-width:0.321597;stroke-linecap:square;stroke-miterlimit:0"
         id="circle3213"
         cx="168.09785"
         cy="113.55726"
         r="0.46842867" />
      <circle
         style="fill:#5e3807;fill-opacity:1;stroke-width:0.321597;stroke-linecap:square;stroke-miterlimit:0"
         id="circle3215"
         cx="174.85492"
         cy="112.36484"
         r="0.46842867" />
      <circle
         style="fill:#5e3807;fill-opacity:1;stroke-width:0.321597;stroke-linecap:square;stroke-miterlimit:0"
         id="circle3217"
         cx="182.67192"
         cy="114.41846"
         r="0.46842867" />
      <circle
         style="fill:#5e3807;fill-opacity:1;stroke-width:0.321597;stroke-linecap:square;stroke-miterlimit:0"
         id="circle3219"
         cx="187.24289"
         cy="111.63613"
         r="0.46842867" />
      <path
         style="fill:#008700;fill-opacity:1;stroke-width:0.44357;stroke-linecap:square;stroke-miterlimit:0"
         d="m 166.58695,110.9183 c 0.0784,0.406 0.0173,1.29332 -0.73205,2.31357 0.11019,-0.78988 0.11068,-1.32294 -0.13424,-2.03907 0.0343,1.47594 -0.25112,2.31939 -1.38541,3.42788 0.32417,-1.02867 0.3472,-1.8962 -0.14506,-2.8323 -0.17459,0.53988 -0.19418,1.3455 -0.12554,2.30235 -0.48164,-0.56255 -0.71144,-1.32855 -0.62297,-2.16651 0.0166,-0.15715 -0.25436,0.6177 -0.69304,0.66153 -0.14113,0.0141 0.38145,-0.59297 0.20306,-1.26367 -0.22,0.2517 -0.56401,0.44605 -0.79361,1.62718 -0.23975,-1.20553 0.15013,-1.95185 0.27469,-2.23418 0.17927,-0.49777 3.95399,-0.57274 4.15417,0.20322 z"
         id="path3225"
         sodipodi:nodetypes="ccccccsscccc" />
      <path
         style="fill:#008700;fill-opacity:1;stroke-width:0.682021;stroke-linecap:square;stroke-miterlimit:0"
         d="m 175.79963,111.20341 c -0.12052,0.62425 -0.0265,1.98857 1.12558,3.55728 -0.16942,-1.2145 -0.17018,-2.03412 0.20641,-3.13522 -0.0528,2.26936 0.38611,3.56623 2.13016,5.2706 -0.49843,-1.58164 -0.53385,-2.91553 0.22304,-4.35486 0.26845,0.83011 0.29856,2.06881 0.19303,3.54003 0.74055,-0.86495 1.0939,-2.04274 0.95785,-3.33116 -0.0255,-0.24162 0.39111,0.94975 1.06561,1.01714 0.217,0.0217 -0.58651,-0.91172 -0.31222,-1.94298 0.33827,0.38702 0.8672,0.68584 1.22023,2.50191 0.36864,-1.85359 -0.23083,-3.0011 -0.42235,-3.4352 -0.27564,-0.76537 -6.07954,-0.88064 -6.38734,0.31246 z"
         id="path3227"
         sodipodi:nodetypes="ccccccsscccc" />
      <path
         style="fill:#008700;fill-opacity:1;stroke-width:0.535284;stroke-linecap:square;stroke-miterlimit:0"
         d="m 191.87675,111.34504 c 0.0946,0.48994 0.0208,1.56073 -0.88341,2.79193 0.13298,-0.9532 0.13357,-1.59648 -0.162,-2.46068 0.0414,1.78111 -0.30303,2.79896 -1.67185,4.13663 0.39119,-1.24135 0.41899,-2.28825 -0.17505,-3.4179 -0.21069,0.6515 -0.23433,1.62369 -0.1515,2.77838 -0.58122,-0.67886 -0.85854,-1.60324 -0.75177,-2.61445 0.02,-0.18964 -0.30696,0.74541 -0.83633,0.7983 -0.17032,0.017 0.46031,-0.71557 0.24504,-1.52495 -0.26549,0.30375 -0.68063,0.53828 -0.9577,1.96362 -0.28932,-1.45478 0.18117,-2.35541 0.33149,-2.69611 0.21633,-0.60069 4.7715,-0.69117 5.01308,0.24523 z"
         id="path3229"
         sodipodi:nodetypes="ccccccsscccc" />
      <path
         style="font-variation-settings:normal;vector-effect:none;fill:#009f00;fill-opacity:1;stroke-width:0.562794;stroke-linecap:square;stroke-linejoin:miter;stroke-miterlimit:0;stroke-dasharray:none;stroke-dashoffset:0;stroke-opacity:1;-inkscape-stroke:none;stop-color:#000000"
         d="m 171.13052,111.1941 c -0.10688,0.55357 -0.0236,1.76342 0.99813,3.15451 -0.15024,-1.077 -0.15091,-1.80381 0.18304,-2.78024 -0.0468,2.01241 0.34239,3.16244 1.88897,4.67383 -0.44199,-1.40256 -0.4734,-2.58541 0.19778,-3.86177 0.23805,0.73612 0.26476,1.83456 0.17118,3.1392 0.6567,-0.76702 0.97003,-1.81144 0.8494,-2.95398 -0.0226,-0.21427 0.34682,0.84221 0.94494,0.90198 0.19244,0.0192 -0.52009,-0.8085 -0.27686,-1.72299 0.29997,0.34319 0.76901,0.60819 1.08207,2.21862 0.32689,-1.64371 -0.2047,-2.66129 -0.37453,-3.04624 -0.24444,-0.67871 -5.39118,-0.78093 -5.66412,0.27708 z"
         id="path3239"
         sodipodi:nodetypes="ccccccsscccc" />
      <path
         style="fill:#009f00;fill-opacity:1;stroke-width:0.433095;stroke-linecap:square;stroke-miterlimit:0"
         d="m 188.97075,110.96115 c 0.0765,0.3964 0.0169,1.26278 -0.71477,2.25893 0.10759,-0.77123 0.10807,-1.2917 -0.13107,-1.99092 0.0335,1.44109 -0.24518,2.26462 -1.35269,3.34693 0.31652,-1.00438 0.339,-1.85142 -0.14163,-2.76542 -0.17047,0.52714 -0.18959,1.31374 -0.12258,2.24799 -0.47026,-0.54926 -0.69464,-1.29717 -0.60825,-2.11535 0.0162,-0.15344 -0.24836,0.60311 -0.67668,0.64591 -0.1378,0.0138 0.37244,-0.57897 0.19827,-1.23383 -0.21481,0.24576 -0.5507,0.43552 -0.77488,1.58875 -0.23408,-1.17706 0.14659,-1.90575 0.26821,-2.18141 0.17503,-0.48602 3.86061,-0.55922 4.05607,0.19842 z"
         id="path3241"
         sodipodi:nodetypes="ccccccsscccc" />
      <path
         style="fill:#00ad00;fill-opacity:1;stroke-width:0.70614;stroke-linecap:square;stroke-miterlimit:0"
         d="m 165.51295,111.07168 c -0.12478,0.64633 -0.0275,2.0589 1.16539,3.68308 -0.17542,-1.25745 -0.1762,-2.10605 0.2137,-3.24609 -0.0546,2.34961 0.39977,3.69234 2.20549,5.45699 -0.51605,-1.63758 -0.55272,-3.01864 0.23092,-4.50887 0.27795,0.85947 0.30913,2.14197 0.19987,3.66522 0.76673,-0.89554 1.13257,-2.11497 0.99172,-3.44896 -0.0264,-0.25017 0.40494,0.98334 1.10329,1.05311 0.22467,0.0224 -0.60725,-0.94397 -0.32326,-2.01169 0.35023,0.40071 0.89787,0.7101 1.26338,2.59038 0.38167,-1.91913 -0.23899,-3.10723 -0.43729,-3.55668 -0.28539,-0.79243 -6.29453,-0.91178 -6.61321,0.32351 z"
         id="path3243"
         sodipodi:nodetypes="ccccccsscccc" />
      <path
         style="fill:#00ad00;fill-opacity:1;stroke-width:0.398174;stroke-linecap:square;stroke-miterlimit:0"
         d="m 185.31174,110.93051 c 0.0704,0.36445 0.0155,1.16097 -0.65714,2.07681 0.0989,-0.70905 0.0994,-1.18756 -0.1205,-1.8304 0.0308,1.32489 -0.22542,2.08203 -1.24362,3.07707 0.29099,-0.9234 0.31166,-1.70214 -0.13021,-2.54245 -0.15673,0.48464 -0.17431,1.20781 -0.11271,2.06673 -0.43234,-0.50497 -0.63863,-1.19258 -0.5592,-1.94478 0.0149,-0.14107 -0.22834,0.55448 -0.62212,0.59382 -0.12669,0.0126 0.34241,-0.53228 0.18228,-1.13434 -0.19749,0.22594 -0.50629,0.4004 -0.71239,1.46065 -0.21522,-1.08216 0.13476,-1.75209 0.24657,-2.00552 0.16093,-0.44684 3.54934,-0.51414 3.72904,0.18241 z"
         id="path3245"
         sodipodi:nodetypes="ccccccsscccc" />
      <path
         style="fill:#00ad00;fill-opacity:1;stroke-width:0.398174;stroke-linecap:square;stroke-miterlimit:0"
         d="m 159.64197,111.01959 c -0.0704,0.36445 -0.0155,1.16097 0.65714,2.07681 -0.0989,-0.70905 -0.0994,-1.18756 0.1205,-1.8304 -0.0308,1.32489 0.22542,2.08203 1.24362,3.07707 -0.29099,-0.9234 -0.31166,-1.70214 0.13021,-2.54245 0.15673,0.48464 0.17431,1.20781 0.11271,2.06673 0.43234,-0.50497 0.63863,-1.19258 0.5592,-1.94478 -0.0149,-0.14107 0.22834,0.55448 0.62212,0.59382 0.12669,0.0126 -0.34241,-0.53228 -0.18228,-1.13434 0.19749,0.22594 0.50629,0.4004 0.71239,1.46065 0.21522,-1.08216 -0.13476,-1.75209 -0.24657,-2.00552 -0.16093,-0.44684 -3.54934,-0.51414 -3.72904,0.18241 z"
         id="path3275"
         sodipodi:nodetypes="ccccccsscccc" />
    </g>
  </g>
</svg>
