<?xml version="1.0" encoding="UTF-8" standalone="no"?>
<!-- Created with Inkscape (http://www.inkscape.org/) -->

<svg
   width="210mm"
   height="297mm"
   viewBox="0 0 210 297"
   version="1.1"
   id="svg5"
   inkscape:version="1.2.2 (732a01da63, 2022-12-09)"
   sodipodi:docname="f_bk.svg"
   xml:space="preserve"
   inkscape:export-filename="teknos.png"
   inkscape:export-xdpi="96"
   inkscape:export-ydpi="96"
   xmlns:inkscape="http://www.inkscape.org/namespaces/inkscape"
   xmlns:sodipodi="http://sodipodi.sourceforge.net/DTD/sodipodi-0.dtd"
   xmlns="http://www.w3.org/2000/svg"
   xmlns:svg="http://www.w3.org/2000/svg"><sodipodi:namedview
     id="namedview7"
     pagecolor="#ffffff"
     bordercolor="#000000"
     borderopacity="0.25"
     inkscape:showpageshadow="2"
     inkscape:pageopacity="0.0"
     inkscape:pagecheckerboard="0"
     inkscape:deskcolor="#d1d1d1"
     inkscape:document-units="mm"
     showgrid="false"
     inkscape:zoom="0.70199216"
     inkscape:cx="522.0856"
     inkscape:cy="609.69342"
     inkscape:window-width="1920"
     inkscape:window-height="986"
     inkscape:window-x="-11"
     inkscape:window-y="-11"
     inkscape:window-maximized="1"
     inkscape:current-layer="layer1" /><defs
     id="defs2"><clipPath
       clipPathUnits="userSpaceOnUse"
       id="clipPath984"><g
         id="g988"><g
           inkscape:label="Clip"
           id="use986"
           clip-path="url(#clipPath984)"><path
             id="path990"
             style="fill:#000000;fill-opacity:1;stroke-width:2.04815;paint-order:stroke fill markers"
             d="m 133.71592,53.657821 c -3.75581,0.02622 -7.83462,0.560084 -12.22465,1.690281 -27.459291,8.223072 -11.10605,55.631608 -24.836667,61.407958 l 0.407488,4.47919 c 1.366953,6.41109 5.517159,9.99964 15.328959,9.0039 16.90189,-18.55447 45.07139,-23.7196 51.13077,-40.502216 4.02437,-17.445845 -6.85377,-36.239318 -29.8059,-36.079113 z M 100.322,155.06524 l -0.16193,0.25929 0.0423,0.46041 c 0.0381,-0.24176 0.0787,-0.48063 0.11959,-0.7197 z" /></g></g></clipPath></defs><g
     inkscape:label="Réteg 1"
     inkscape:groupmode="layer"
     id="layer1"><g
       id="g4147"><g
         id="g4173"><path
           style="fill:#000000;fill-opacity:1;stroke:none;stroke-width:1.10713;stroke-dasharray:none;stroke-opacity:1;paint-order:stroke fill markers"
           d="m 102.84277,148.30814 c -2.901742,-8.32295 67.66057,-52.985594 74.58703,-45.39556 5.09437,5.36173 -0.37593,31.55733 -6.05751,36.28883 -7.00723,7.14792 -64.89409,18.82229 -68.52952,9.10673 z"
           id="path27733"
           sodipodi:nodetypes="cccc" /><path
           style="fill:#d2d2d2;fill-opacity:1;stroke:none;stroke-width:0.911417;stroke-dasharray:none;stroke-opacity:1;paint-order:stroke fill markers"
           d="m 113.07127,144.71587 c -0.14974,6.0076 50.95876,-4.38334 54.15343,-9.05996 3.07659,-5.05368 9.87213,-27.91499 4.32459,-27.01364 -8.85147,0.82158 -58.09624,28.74506 -58.47802,36.0736 z"
           id="path27735"
           sodipodi:nodetypes="cccc" /><path
           id="path27737"
           style="fill:#000000;fill-opacity:0.235012;stroke:none;stroke-width:0.960318;stroke-dasharray:none;stroke-opacity:1;paint-order:stroke fill markers"
           d="m 135.09327,126.68875 c -0.31178,0.19233 -0.62842,0.38392 -0.9376,0.5764 -0.81414,0.50686 -1.6181,1.01454 -2.41035,1.52047 -0.79226,0.50595 -1.57251,1.01058 -2.33743,1.51267 -0.76491,0.50212 -1.51484,1.00157 -2.24697,1.49692 -0.36606,0.24768 -0.72759,0.49379 -1.08444,0.73923 -0.35685,0.24545 -0.70926,0.49027 -1.05621,0.73311 -0.34695,0.24286 -0.68824,0.48386 -1.02461,0.72376 -0.33636,0.23989 -0.66708,0.47866 -0.99219,0.71522 -0.3251,0.23658 -0.64491,0.47138 -0.95808,0.70426 -0.31316,0.23288 -0.6201,0.46368 -0.92064,0.69252 -0.30055,0.22882 -0.59431,0.45556 -0.88155,0.67998 -0.28724,0.22441 -0.56832,0.44617 -0.84158,0.66579 -0.27325,0.21963 -0.5389,0.43721 -0.79749,0.6517 -0.25858,0.21449 -0.5101,0.42612 -0.75334,0.63511 -0.24325,0.20898 -0.47787,0.41549 -0.70508,0.61859 -0.22721,0.20313 -0.44625,0.40274 -0.65676,0.59961 -0.2105,0.19688 -0.41284,0.39039 -0.60596,0.58067 -0.19311,0.19028 -0.37762,0.37761 -0.55266,0.56094 -0.17505,0.1833 -0.34055,0.36278 -0.49685,0.53876 -0.15628,0.17598 -0.30333,0.34832 -0.4402,0.5166 -0.13685,0.1683 -0.26346,0.33264 -0.38021,0.49287 -0.11675,0.16024 -0.22344,0.31648 -0.31939,0.46831 -0.048,0.076 -0.0937,0.15057 -0.13635,0.22423 -0.0426,0.0737 -0.0825,0.14644 -0.1197,0.21791 -0.0373,0.0715 -0.0713,0.14232 -0.10304,0.21158 -0.0318,0.0692 -0.061,0.13673 -0.0872,0.2036 -0.0262,0.0669 -0.0492,0.13262 -0.0697,0.19728 -0.0205,0.0646 -0.0383,0.12882 -0.053,0.19098 -0.0147,0.0622 -0.0266,0.12246 -0.0355,0.18219 -0.009,0.0597 -0.0151,0.11867 -0.018,0.17587 -0.001,0.0469 7.5e-4,0.0925 0.006,0.13746 0.005,0.0449 0.013,0.0891 0.0241,0.13201 0.0111,0.0429 0.0261,0.0855 0.0432,0.12643 0.0172,0.041 0.0368,0.081 0.0599,0.12017 0.0231,0.0391 0.0493,0.0768 0.0782,0.11393 0.0289,0.0372 0.061,0.0739 0.0957,0.10928 0.0347,0.0353 0.072,0.0695 0.11232,0.10285 0.0403,0.0334 0.0831,0.0658 0.12897,0.0974 0.0459,0.0316 0.0951,0.0622 0.14643,0.0919 0.0513,0.0297 0.10476,0.0584 0.16142,0.0864 0.0567,0.0279 0.11611,0.0555 0.17805,0.0818 0.0619,0.0262 0.12677,0.0509 0.19388,0.0755 0.13421,0.0488 0.27836,0.0948 0.43269,0.13674 0.15432,0.042 0.31894,0.0803 0.49262,0.11555 0.17367,0.0353 0.35612,0.0672 0.5484,0.0958 0.19227,0.0286 0.39405,0.0539 0.60417,0.0761 0.21011,0.0222 0.4286,0.0413 0.6558,0.0572 0.22721,0.0153 0.46306,0.0291 0.70658,0.039 0.24354,0.009 0.49497,0.0168 0.75405,0.0215 0.2591,0.004 0.52597,0.005 0.79988,0.003 0.2739,-0.002 0.55522,-0.007 0.84319,-0.0139 0.28797,-0.008 0.58274,-0.0171 0.88401,-0.0297 0.30126,-0.0127 0.60853,-0.0277 0.92234,-0.0457 0.31381,-0.0179 0.63425,-0.0385 0.95985,-0.0615 0.32561,-0.023 0.65657,-0.048 0.9932,-0.0758 0.33663,-0.0278 0.67882,-0.0583 1.02573,-0.0909 0.3469,-0.0326 0.6985,-0.0674 1.05492,-0.10444 0.35642,-0.037 0.71728,-0.0765 1.08247,-0.11805 0.73036,-0.0829 1.47752,-0.17418 2.23839,-0.27361 0.76087,-0.0994 1.53583,-0.20717 2.32115,-0.32176 0.78532,-0.11453 1.58106,-0.23606 2.38478,-0.36445 0.80372,-0.12846 1.61491,-0.26333 2.43098,-0.40418 0.81607,-0.14088 1.63738,-0.28727 2.45973,-0.43923 0.82236,-0.15196 1.64599,-0.30963 2.46858,-0.47135 0.8226,-0.16172 1.644,-0.32781 2.4608,-0.49795 0.81677,-0.17013 1.62898,-0.34439 2.43389,-0.52159 0.80493,-0.17718 1.60259,-0.35767 2.38957,-0.54058 0.78701,-0.18289 1.56311,-0.36768 2.32614,-0.55494 0.76304,-0.18725 1.51312,-0.37686 2.24612,-0.56713 0.73299,-0.19028 1.44919,-0.38112 2.14611,-0.57305 0.69693,-0.19193 1.37394,-0.38455 2.02873,-0.57679 0.32739,-0.0961 0.64982,-0.19208 0.96554,-0.28804 0.31574,-0.096 0.62501,-0.19226 0.92832,-0.28786 0.30331,-0.0956 0.60011,-0.19097 0.89024,-0.28605 0.29012,-0.095 0.57349,-0.1899 0.84966,-0.28431 0.27618,-0.0945 0.54512,-0.18821 0.80661,-0.28177 0.2615,-0.0936 0.51586,-0.18671 0.7619,-0.27925 0.24604,-0.0926 0.48402,-0.18461 0.71386,-0.27597 0.22982,-0.0913 0.45127,-0.1819 0.66414,-0.27189 0.21287,-0.09 0.41681,-0.17939 0.61196,-0.26786 0.15993,-0.0726 0.30961,-0.14464 0.45718,-0.21602 -37.91928,4.82441 -48.06384,3.61324 -29.95016,-10.46168 z"
           sodipodi:nodetypes="cssssssssssssssssssssssssssssscsssssssssssssssssssssssssssssssssssssssssssssssssscc" /><path
           id="path27739"
           style="fill:#ffffff;fill-opacity:0.695444;stroke:none;stroke-width:0.960318;stroke-dasharray:none;stroke-opacity:1;paint-order:stroke fill markers"
           d="m 170.04495,128.97976 c 0.10063,-0.29283 0.20066,-0.58735 0.30042,-0.88888 0.12183,-0.36819 0.24354,-0.74215 0.3633,-1.12104 0.11977,-0.37886 0.23796,-0.76229 0.35469,-1.14931 0.11672,-0.387 0.23159,-0.77756 0.34432,-1.17018 0.11266,-0.3926 0.22358,-0.78796 0.33131,-1.18363 0.10775,-0.39568 0.21227,-0.79188 0.31404,-1.18809 0.10183,-0.3962 0.20014,-0.79176 0.29496,-1.18594 0.0947,-0.3942 0.1864,-0.78678 0.27328,-1.17641 0.0868,-0.38965 0.16929,-0.77695 0.24733,-1.1595 0.0779,-0.38258 0.15155,-0.76059 0.21958,-1.13352 0.0341,-0.18648 0.0662,-0.37141 0.0976,-0.55498 0.0315,-0.1836 0.0614,-0.36563 0.0899,-0.54603 0.0287,-0.18039 0.0559,-0.35937 0.0816,-0.53624 0.0257,-0.17688 0.0503,-0.35178 0.0731,-0.52481 0.0226,-0.17305 0.0435,-0.34452 0.063,-0.51342 0.0195,-0.16889 0.0374,-0.33508 0.0536,-0.49951 0.0157,-0.16444 0.0314,-0.3268 0.0442,-0.48646 0.0125,-0.1597 0.0239,-0.3172 0.0332,-0.47175 0.009,-0.15447 0.0167,-0.30627 0.0225,-0.45539 0.006,-0.14909 0.0101,-0.29566 0.0126,-0.43905 0.002,-0.14339 0.002,-0.28372 -5e-4,-0.42106 -0.002,-0.13739 -0.006,-0.27129 -0.0119,-0.40225 -0.006,-0.13088 -0.0136,-0.25913 -0.0237,-0.38342 -0.0106,-0.12425 -0.0222,-0.24487 -0.0366,-0.36216 -0.0142,-0.11727 -0.0306,-0.23092 -0.0493,-0.34087 -0.0187,-0.10999 -0.0398,-0.21646 -0.063,-0.31877 -0.0232,-0.10238 -0.0488,-0.20068 -0.0767,-0.29503 -0.0278,-0.0943 -0.0577,-0.18438 -0.0903,-0.27046 -0.0326,-0.0861 -0.0674,-0.16759 -0.10481,-0.24508 -0.0187,-0.0388 -0.0385,-0.077 -0.0583,-0.11357 -0.02,-0.0365 -0.0407,-0.0718 -0.0618,-0.10611 -0.0212,-0.0343 -0.0428,-0.0677 -0.0653,-0.0996 -0.0225,-0.0319 -0.0458,-0.0626 -0.0694,-0.0922 -0.0238,-0.0297 -0.0479,-0.0583 -0.0729,-0.0857 -0.0251,-0.0273 -0.0507,-0.0534 -0.0772,-0.0784 -0.0263,-0.025 -0.0529,-0.0485 -0.0807,-0.0709 -0.0276,-0.0224 -0.0567,-0.0436 -0.0858,-0.0635 -0.0291,-0.02 -0.0587,-0.0387 -0.0891,-0.0562 -0.0304,-0.0175 -0.0609,-0.0339 -0.0926,-0.0489 -0.0318,-0.015 -0.0645,-0.0284 -0.0977,-0.0406 -0.0333,-0.0118 -0.0675,-0.0236 -0.10202,-0.0332 -0.0345,-0.0102 -0.0695,-0.018 -0.10552,-0.0251 -0.0361,-0.007 -0.0731,-0.0125 -0.11049,-0.0164 -0.0374,-0.004 -0.0751,-0.006 -0.11398,-0.008 -0.0389,-10e-4 -0.0787,-0.002 -0.11909,-5.3e-4 -0.0404,8.9e-4 -0.0815,0.003 -0.12339,0.007 -0.0419,0.004 -0.0844,0.01 -0.12772,0.0168 -0.0691,0.007 -0.14065,0.0146 -0.21469,0.0243 -0.0741,0.01 -0.15085,0.021 -0.22976,0.034 -0.0788,0.013 -0.1596,0.0276 -0.24315,0.0437 -0.0835,0.0161 -0.1692,0.0341 -0.25738,0.0534 -0.17639,0.0386 -0.36225,0.084 -0.55666,0.13479 -0.19441,0.051 -0.39765,0.10752 -0.6094,0.17029 -0.21173,0.0628 -0.43207,0.1314 -0.66048,0.20578 -0.2284,0.0745 -0.4647,0.1548 -0.70908,0.24049 -0.24439,0.0858 -0.49715,0.177 -0.75683,0.27355 -0.25968,0.0965 -0.52694,0.19879 -0.80126,0.30585 -0.27429,0.10701 -0.55573,0.21933 -0.84397,0.33652 -0.28823,0.11716 -0.58273,0.23944 -0.88422,0.36641 -0.3015,0.12701 -0.60955,0.25827 -0.92361,0.39466 -0.31406,0.13639 -0.63455,0.27752 -0.9605,0.42296 -0.32596,0.14546 -0.65774,0.29551 -0.99491,0.44964 -0.33716,0.15411 -0.67909,0.31227 -1.02678,0.47471 -0.34769,0.16244 -0.70111,0.32856 -1.05865,0.49898 -0.35755,0.17039 -0.71967,0.34529 -1.08638,0.52327 -0.36672,0.178 -0.73803,0.3591 -1.11323,0.54433 -0.37519,0.18521 -0.7546,0.37412 -1.1376,0.5662 -0.38301,0.19209 -0.76936,0.38792 -1.15949,0.58652 -0.39013,0.19858 -0.78392,0.40043 -1.18048,0.60516 -0.39658,0.20472 -0.79584,0.41171 -1.19818,0.62221 -0.40233,0.2105 -0.8076,0.42421 -1.21502,0.64011 -0.40743,0.21591 -0.81756,0.43463 -1.22938,0.65557 -0.41182,0.22096 -0.82566,0.44379 -1.24119,0.66944 -0.41554,0.22563 -0.83281,0.45418 -1.25139,0.68412 -0.41859,0.22997 -0.83809,0.46167 -1.25904,0.69558 -0.42094,0.23391 -0.84323,0.46955 -1.26586,0.70705 -0.42262,0.23749 -0.84574,0.47701 -1.26935,0.71772 -0.0464,0.0264 -0.0932,0.0529 -0.13957,0.0795 -2.99242,8.80192 8.27684,9.20751 25.9732,7.61129 z" /></g></g></g></svg>
