<?xml version="1.0" encoding="UTF-8" standalone="no"?>
<!-- Created with Inkscape (http://www.inkscape.org/) -->

<svg
   width="210mm"
   height="297mm"
   viewBox="0 0 210 297"
   version="1.1"
   id="svg5"
   inkscape:version="1.2.2 (732a01da63, 2022-12-09)"
   sodipodi:docname="f_bl.svg"
   xml:space="preserve"
   inkscape:export-filename="teknos.png"
   inkscape:export-xdpi="96"
   inkscape:export-ydpi="96"
   xmlns:inkscape="http://www.inkscape.org/namespaces/inkscape"
   xmlns:sodipodi="http://sodipodi.sourceforge.net/DTD/sodipodi-0.dtd"
   xmlns="http://www.w3.org/2000/svg"
   xmlns:svg="http://www.w3.org/2000/svg"><sodipodi:namedview
     id="namedview7"
     pagecolor="#ffffff"
     bordercolor="#000000"
     borderopacity="0.25"
     inkscape:showpageshadow="2"
     inkscape:pageopacity="0.0"
     inkscape:pagecheckerboard="0"
     inkscape:deskcolor="#d1d1d1"
     inkscape:document-units="mm"
     showgrid="false"
     inkscape:zoom="0.70199216"
     inkscape:cx="522.0856"
     inkscape:cy="609.69342"
     inkscape:window-width="1920"
     inkscape:window-height="986"
     inkscape:window-x="-11"
     inkscape:window-y="-11"
     inkscape:window-maximized="1"
     inkscape:current-layer="layer1" /><defs
     id="defs2"><clipPath
       clipPathUnits="userSpaceOnUse"
       id="clipPath984"><g
         id="g988"><g
           inkscape:label="Clip"
           id="use986"
           clip-path="url(#clipPath984)"><path
             id="path990"
             style="fill:#000000;fill-opacity:1;stroke-width:2.04815;paint-order:stroke fill markers"
             d="m 133.71592,53.657821 c -3.75581,0.02622 -7.83462,0.560084 -12.22465,1.690281 -27.459291,8.223072 -11.10605,55.631608 -24.836667,61.407958 l 0.407488,4.47919 c 1.366953,6.41109 5.517159,9.99964 15.328959,9.0039 16.90189,-18.55447 45.07139,-23.7196 51.13077,-40.502216 4.02437,-17.445845 -6.85377,-36.239318 -29.8059,-36.079113 z M 100.322,155.06524 l -0.16193,0.25929 0.0423,0.46041 c 0.0381,-0.24176 0.0787,-0.48063 0.11959,-0.7197 z" /></g></g></clipPath></defs><g
     inkscape:label="Réteg 1"
     inkscape:groupmode="layer"
     id="layer1"><g
       id="g4167"><path
         style="fill:#000000;fill-opacity:1;stroke:none;stroke-width:1.10327;stroke-dasharray:none;stroke-opacity:1;paint-order:stroke fill markers"
         d="m 94.413425,200.7035 c -3.493833,1.00493 19.833765,63.29766 26.360645,62.97237 l 32.83616,-20.73022 c -2.91335,-3.32245 -8.34644,-10.80337 -11.80691,-10.0472 -4.78996,-5.99507 -41.14137,-41.82923 -47.389895,-32.19495 z"
         id="path20275"
         sodipodi:nodetypes="ccccc" /><path
         style="fill:#d2d2d2;fill-opacity:1;stroke:none;stroke-width:0.960317;stroke-dasharray:none;stroke-opacity:1;paint-order:stroke fill markers"
         d="m 100.26041,209.40706 c 5.73967,17.06612 16.63239,44.0884 21.3574,46.63766 l 24.01311,-14.79178 c -2.15116,-1.36483 -2.52143,-3.26174 -5.89883,-1.90817 -10.79152,-13.98941 -39.929,-40.42114 -39.47168,-29.93771 z"
         id="path20271"
         sodipodi:nodetypes="ccccc" /><path
         id="path21007"
         style="fill:#000000;fill-opacity:0.23261391;stroke:none;stroke-width:0.960317;stroke-dasharray:none;stroke-opacity:1;paint-order:stroke fill markers"
         d="m 145.5431,241.30658 c -0.0883,0.0286 -0.17646,0.0566 -0.2649,0.0859 -0.20255,0.0671 -0.40543,0.13529 -0.60876,0.20582 -0.40666,0.14107 -0.81463,0.28941 -1.22398,0.44262 -0.40938,0.15316 -0.82031,0.31155 -1.2319,0.47439 -0.41156,0.16288 -0.82331,0.33018 -1.23654,0.50037 -0.41322,0.17023 -0.8274,0.34384 -1.24179,0.51895 -0.41433,0.17519 -0.82897,0.35206 -1.24389,0.52987 -0.82986,0.35558 -1.66092,0.71407 -2.48991,1.06585 -0.41452,0.17586 -0.8277,0.35018 -1.24122,0.5215 -0.41351,0.17134 -0.82686,0.34015 -1.23881,0.50463 -0.41189,0.16457 -0.82273,0.3244 -1.23259,0.47965 -0.40983,0.1553 -0.81845,0.30577 -1.22568,0.44942 -0.20362,0.0718 -0.40704,0.14186 -0.60986,0.21041 -0.20282,0.0685 -0.40535,0.13524 -0.60736,0.20012 -0.20201,0.0649 -0.40337,0.12789 -0.60448,0.18887 -0.2011,0.061 -0.40191,0.1201 -0.60208,0.17679 -0.20018,0.0567 -0.39963,0.11087 -0.59872,0.16314 -0.19916,0.0522 -0.39797,0.1026 -0.59604,0.14993 -0.19804,0.0474 -0.3952,0.0918 -0.59207,0.13406 -0.19691,0.0422 -0.39386,0.0822 -0.58954,0.11902 -0.19567,0.0368 -0.3902,0.0705 -0.58458,0.10157 -0.19435,0.0311 -0.38806,0.0598 -0.58107,0.0849 -0.19301,0.0251 -0.38541,0.0472 -0.57696,0.0661 -0.19157,0.0188 -0.38251,0.0339 -0.57259,0.0461 -0.19003,0.0123 -0.37926,0.0215 -0.56778,0.0268 -0.18848,0.005 -0.37623,0.008 -0.56312,0.006 -0.18691,-0.002 -0.37299,-0.007 -0.55818,-0.0166 -0.18516,-0.009 -0.36953,-0.0229 -0.55295,-0.04 -0.18342,-0.0171 -0.36614,-0.0383 -0.54773,-0.0634 -0.18164,-0.0252 -0.36253,-0.0544 -0.54222,-0.088 -0.17969,-0.0335 -0.35756,-0.0712 -0.5353,-0.11338 -0.1777,-0.0422 -0.35466,-0.0893 -0.53036,-0.14047 -0.17572,-0.0512 -0.35026,-0.10617 -0.52386,-0.16659 -0.17356,-0.0604 -0.34621,-0.1264 -0.51764,-0.19637 -0.17145,-0.07 -0.34209,-0.14451 -0.51129,-0.22433 -0.16917,-0.0798 -0.33747,-0.16458 -0.50437,-0.25455 -0.1669,-0.09 -0.33221,-0.18479 -0.49673,-0.28519 -0.16454,-0.10041 -0.32787,-0.20611 -0.48996,-0.31725 -0.1621,-0.11114 -0.32289,-0.22759 -0.48248,-0.34976 -0.1596,-0.12217 -0.3181,-0.25058 -0.47513,-0.38407 -0.15704,-0.1335 -0.31298,-0.2726 -0.46737,-0.41771 -0.15438,-0.14512 -0.30692,-0.29585 -0.45861,-0.45289 -0.0306,-0.0317 -0.0606,-0.0664 -0.0912,-0.0987 2.81643,5.77421 5.36212,9.96489 7.08619,10.89507 z" /><path
         id="path21081"
         style="fill:#ffffff;fill-opacity:0.68824941;stroke:none;stroke-width:0.960317;stroke-dasharray:none;stroke-opacity:1;paint-order:stroke fill markers"
         d="m 107.87849,229.96108 c 0.1846,0.0773 0.37064,0.15055 0.55767,0.2196 0.19808,0.0731 0.39705,0.14169 0.5978,0.20609 0.20073,0.0644 0.40325,0.12439 0.60657,0.18055 0.2033,0.0561 0.4078,0.10855 0.61363,0.15699 0.20584,0.0484 0.41288,0.0929 0.62113,0.13414 0.20824,0.0412 0.41747,0.0791 0.62807,0.11358 0.21061,0.0345 0.42256,0.0654 0.63541,0.0937 0.21287,0.0283 0.42646,0.0539 0.64151,0.0765 0.21501,0.0225 0.43157,0.0422 0.64871,0.0597 0.21712,0.0173 0.4355,0.0327 0.65467,0.0455 0.21918,0.0128 0.43878,0.0231 0.6599,0.0317 0.22113,0.009 0.44342,0.0151 0.6664,0.02 0.22297,0.005 0.44717,0.008 0.67194,0.01 0.44954,0.003 0.90238,7.5e-4 1.3586,-0.005 0.4562,-0.006 0.91506,-0.0156 1.37729,-0.0272 0.92447,-0.0231 1.86102,-0.0528 2.80578,-0.0735 0.47238,-0.0103 0.94648,-0.0182 1.42297,-0.0218 0.23822,-0.002 0.47745,-0.003 0.71661,-0.002 0.23913,5.7e-4 0.47875,0.002 0.71874,0.006 0.24,0.004 0.48027,0.009 0.72102,0.0162 0.24075,0.007 0.48189,0.0154 0.72329,0.0264 0.2414,0.011 0.48273,0.0245 0.72473,0.04 0.242,0.0155 0.48479,0.0334 0.7273,0.0539 0.24248,0.0204 0.48479,0.0431 0.72773,0.0691 0.24294,0.0259 0.48659,0.0551 0.72989,0.0871 0.24326,0.0319 0.48662,0.0668 0.73018,0.10524 0.24356,0.0384 0.48729,0.0805 0.73106,0.12597 0.24376,0.0455 0.48734,0.0941 0.73121,0.14708 0.24387,0.053 0.48734,0.11019 0.73124,0.1712 0.24391,0.061 0.48855,0.12605 0.7324,0.19561 0.24386,0.0695 0.48742,0.14379 0.73115,0.2224 0.24373,0.0786 0.48751,0.16134 0.73103,0.24951 0.067,0.0243 0.13383,0.0521 0.20079,0.0771 -12.89998,-14.18102 -34.286709,-32.35929 -33.89432,-23.36424 2.0527,6.10341 4.76487,13.47831 7.6179,20.55368 z" /></g></g></svg>
