<?xml version="1.0" encoding="UTF-8" standalone="no"?>
<!-- Created with Inkscape (http://www.inkscape.org/) -->

<svg
   width="210mm"
   height="297mm"
   viewBox="0 0 210 297"
   version="1.1"
   id="svg5"
   inkscape:version="1.2.2 (732a01da63, 2022-12-09)"
   sodipodi:docname="f_jk.svg"
   xml:space="preserve"
   inkscape:export-filename="teknos.png"
   inkscape:export-xdpi="96"
   inkscape:export-ydpi="96"
   xmlns:inkscape="http://www.inkscape.org/namespaces/inkscape"
   xmlns:sodipodi="http://sodipodi.sourceforge.net/DTD/sodipodi-0.dtd"
   xmlns="http://www.w3.org/2000/svg"
   xmlns:svg="http://www.w3.org/2000/svg"><sodipodi:namedview
     id="namedview7"
     pagecolor="#ffffff"
     bordercolor="#000000"
     borderopacity="0.25"
     inkscape:showpageshadow="2"
     inkscape:pageopacity="0.0"
     inkscape:pagecheckerboard="0"
     inkscape:deskcolor="#d1d1d1"
     inkscape:document-units="mm"
     showgrid="false"
     inkscape:zoom="0.70199216"
     inkscape:cx="522.0856"
     inkscape:cy="609.69342"
     inkscape:window-width="1920"
     inkscape:window-height="986"
     inkscape:window-x="-11"
     inkscape:window-y="-11"
     inkscape:window-maximized="1"
     inkscape:current-layer="layer1" /><defs
     id="defs2"><clipPath
       clipPathUnits="userSpaceOnUse"
       id="clipPath984"><g
         id="g988"><g
           inkscape:label="Clip"
           id="use986"
           clip-path="url(#clipPath984)"><path
             id="path990"
             style="fill:#000000;fill-opacity:1;stroke-width:2.04815;paint-order:stroke fill markers"
             d="m 133.71592,53.657821 c -3.75581,0.02622 -7.83462,0.560084 -12.22465,1.690281 -27.459291,8.223072 -11.10605,55.631608 -24.836667,61.407958 l 0.407488,4.47919 c 1.366953,6.41109 5.517159,9.99964 15.328959,9.0039 16.90189,-18.55447 45.07139,-23.7196 51.13077,-40.502216 4.02437,-17.445845 -6.85377,-36.239318 -29.8059,-36.079113 z M 100.322,155.06524 l -0.16193,0.25929 0.0423,0.46041 c 0.0381,-0.24176 0.0787,-0.48063 0.11959,-0.7197 z" /></g></g></clipPath></defs><g
     inkscape:label="Réteg 1"
     inkscape:groupmode="layer"
     id="layer1"><g
       id="g4161"><path
         style="fill:#000000;fill-opacity:1;stroke:none;stroke-width:1.10713;stroke-dasharray:none;stroke-opacity:1;paint-order:stroke fill markers"
         d="m 115.25245,126.16043 c -7.86926,-3.97067 -61.42028,60.10802 -54.806656,67.97214 4.645506,5.75501 31.332889,3.7758 36.770219,-1.23448 8.007047,-6.00677 27.189787,-61.85659 18.036437,-66.73766 z"
         id="path27724"
         sodipodi:nodetypes="cccc" /><path
         style="fill:#d2d2d2;fill-opacity:1;stroke:none;stroke-width:0.911417;stroke-dasharray:none;stroke-opacity:1;paint-order:stroke fill markers"
         d="m 110.34674,135.82793 c 5.97515,0.64131 -11.044228,49.94031 -16.100228,52.49247 -5.414263,2.38555 -28.970503,6.11682 -27.347709,0.73591 1.978049,-8.66665 36.132817,-53.8133 43.447937,-53.22838 z"
         id="path24980"
         sodipodi:nodetypes="cccc" /><path
         id="path25116"
         style="fill:#000000;fill-opacity:0.23501199;stroke:none;stroke-width:0.960318;stroke-dasharray:none;stroke-opacity:1;paint-order:stroke fill markers"
         d="m 89.581103,155.28902 c 0.231646,-0.28379 0.463194,-0.5725 0.694654,-0.85369 0.609483,-0.74045 1.218441,-1.47069 1.824132,-2.18956 0.605707,-0.71887 1.208524,-1.42601 1.80682,-2.11829 0.598312,-0.69227 1.192014,-1.37003 1.779311,-2.03069 0.293649,-0.33033 0.585147,-0.65637 0.875367,-0.97785 0.290235,-0.32149 0.579252,-0.63866 0.8656,-0.95067 0.286364,-0.31201 0.570132,-0.61866 0.852166,-0.92057 0.282034,-0.30191 0.562203,-0.59837 0.839448,-0.88956 0.277262,-0.29119 0.552063,-0.57735 0.824094,-0.85719 0.272035,-0.27983 0.541175,-0.55376 0.807535,-0.82162 0.26634,-0.26785 0.52974,-0.52925 0.78996,-0.7845 0.26023,-0.25525 0.51701,-0.50474 0.77065,-0.74676 0.25365,-0.242 0.50426,-0.47674 0.75088,-0.70489 0.24662,-0.22815 0.48949,-0.44966 0.72863,-0.66332 0.23914,-0.21366 0.47471,-0.4191 0.70592,-0.61764 0.23123,-0.19854 0.4579,-0.38944 0.68074,-0.57224 0.22284,-0.18279 0.44127,-0.35794 0.65529,-0.52436 0.21401,-0.16643 0.42397,-0.3247 0.62872,-0.47413 0.20472,-0.14943 0.40439,-0.28991 0.5994,-0.42171 0.19499,-0.1318 0.38517,-0.25491 0.56998,-0.36847 0.18483,-0.11354 0.36439,-0.21745 0.53858,-0.31212 0.17419,-0.0947 0.3431,-0.17989 0.50623,-0.25505 0.0816,-0.0376 0.16158,-0.0731 0.24021,-0.1057 0.0786,-0.0326 0.15601,-0.0625 0.23175,-0.09 0.0758,-0.0275 0.15045,-0.052 0.22329,-0.0743 0.0728,-0.0224 0.14357,-0.0425 0.21329,-0.0597 0.0698,-0.0171 0.13795,-0.0313 0.20474,-0.0431 0.0668,-0.0118 0.13273,-0.021 0.19629,-0.0275 0.0636,-0.006 0.1249,-0.0103 0.18527,-0.0112 0.0604,-9.8e-4 0.11963,6.5e-4 0.17672,0.005 0.0466,0.005 0.0916,0.0129 0.13549,0.0239 0.0439,0.0108 0.0866,0.0246 0.1277,0.0413 0.0411,0.0166 0.0813,0.0371 0.11965,0.0595 0.0384,0.0224 0.0755,0.0471 0.11125,0.0752 0.0358,0.0281 0.0696,0.0589 0.10266,0.0925 0.033,0.0336 0.0653,0.0702 0.0957,0.1092 0.0305,0.039 0.0594,0.0805 0.0872,0.12487 0.0278,0.0444 0.0543,0.091 0.0796,0.14065 0.0252,0.0496 0.0492,0.10246 0.0719,0.15724 0.0227,0.0548 0.0441,0.11152 0.0645,0.17139 0.0202,0.0598 0.0398,0.1224 0.0577,0.18725 0.0179,0.0648 0.0338,0.13237 0.0494,0.20212 0.0307,0.13946 0.0573,0.28841 0.0787,0.44691 0.0213,0.1585 0.0377,0.32673 0.0498,0.50353 0.0121,0.17681 0.0198,0.36187 0.0228,0.55623 0.003,0.19436 0.002,0.39773 -0.004,0.60893 -0.006,0.21121 -0.0154,0.43031 -0.0296,0.65762 -0.0147,0.22725 -0.032,0.46287 -0.0542,0.70558 -0.023,0.24263 -0.0484,0.49289 -0.0779,0.75033 -0.0301,0.25738 -0.0646,0.522 -0.10212,0.79333 -0.0375,0.27133 -0.0795,0.54954 -0.12466,0.83405 -0.0455,0.28446 -0.0936,0.57543 -0.14565,0.87243 -0.0522,0.29698 -0.10748,0.59961 -0.16651,0.90834 -0.059,0.30873 -0.12152,0.62369 -0.18713,0.94344 -0.0656,0.31975 -0.13389,0.64456 -0.20568,0.97462 -0.0718,0.33005 -0.14706,0.66526 -0.22493,1.00488 -0.0779,0.33961 -0.15866,0.68357 -0.24222,1.03203 -0.0836,0.34846 -0.17016,0.701 -0.25931,1.05756 -0.17816,0.71313 -0.36691,1.4418 -0.56549,2.183 -0.19861,0.74119 -0.40728,1.49526 -0.6241,2.2587 -0.21678,0.76345 -0.44186,1.53631 -0.67479,2.31617 -0.233,0.77986 -0.47334,1.56629 -0.72024,2.35676 -0.24694,0.79046 -0.50003,1.5854 -0.75878,2.38065 -0.25874,0.79524 -0.52332,1.59099 -0.79177,2.38519 -0.26845,0.7942 -0.54109,1.58664 -0.81712,2.37398 -0.27602,0.78732 -0.55555,1.56957 -0.83702,2.34421 -0.28145,0.77465 -0.56524,1.54165 -0.85002,2.29777 -0.28476,0.75613 -0.56997,1.50121 -0.8559,2.23299 -0.28594,0.7318 -0.57251,1.45045 -0.85749,2.15207 -0.28498,0.70163 -0.56832,1.38652 -0.8502,2.05216 -0.28188,0.66565 -0.56182,1.31147 -0.838477,1.9353 -0.138336,0.31191 -0.275836,0.61893 -0.412463,0.9193 -0.136692,0.30037 -0.272759,0.59431 -0.407402,0.88242 -0.134643,0.28811 -0.268197,0.5698 -0.400594,0.84491 -0.132349,0.27511 -0.263644,0.54355 -0.393533,0.80491 -0.12997,0.26137 -0.258243,0.51565 -0.385367,0.76258 -0.127187,0.24691 -0.252896,0.48683 -0.376977,0.71857 -0.12416,0.23173 -0.246641,0.45555 -0.367418,0.67139 -0.120727,0.21582 -0.239645,0.42344 -0.356842,0.62264 -0.117211,0.19918 -0.23263,0.38961 -0.345985,0.57143 -0.09294,0.149 -0.184077,0.28791 -0.274245,0.42481 9.767333,-36.95599 9.900253,-47.17173 -6.433706,-31.06551 z"
         sodipodi:nodetypes="cssssssssssssssssssssssssssssscsssssssssssssssssssssssssssssssssssssssssssssssssscc" /><path
         id="path25119"
         style="fill:#ffffff;fill-opacity:0.51318944;stroke:none;stroke-width:0.960318;stroke-dasharray:none;stroke-opacity:1;paint-order:stroke fill markers"
         d="m 87.25756,190.23855 c -0.303516,0.0613 -0.608631,0.12171 -0.920666,0.18097 -0.381004,0.0724 -0.767724,0.14386 -1.159062,0.21277 -0.391323,0.0689 -0.786957,0.13569 -1.185964,0.20053 -0.39899,0.0648 -0.801261,0.12736 -1.205288,0.1875 -0.404001,0.0601 -0.81052,0.11806 -1.216914,0.17284 -0.406411,0.0548 -0.812915,0.10632 -1.219059,0.15513 -0.40615,0.0489 -0.811203,0.0943 -1.214429,0.1365 -0.403235,0.0421 -0.80445,0.0813 -1.202123,0.11626 -0.397684,0.0349 -0.792459,0.0657 -1.181954,0.0928 -0.389495,0.0269 -0.773904,0.0502 -1.152548,0.0687 -0.189335,0.009 -0.376878,0.0168 -0.562996,0.0238 -0.186134,0.007 -0.37053,0.0128 -0.553108,0.0174 -0.182597,0.005 -0.363598,0.008 -0.542321,0.0104 -0.178723,0.002 -0.35533,0.004 -0.529861,0.003 -0.174513,-3.2e-4 -0.347235,-0.002 -0.517236,-0.005 -0.169985,-0.003 -0.337084,-0.007 -0.50222,-0.0126 -0.165082,-0.006 -0.328097,-0.0118 -0.488049,-0.0201 -0.159947,-0.009 -0.31759,-0.018 -0.472024,-0.0291 -0.154335,-0.0112 -0.305802,-0.0237 -0.454398,-0.0375 -0.148565,-0.0138 -0.29442,-0.0289 -0.436896,-0.0452 -0.142409,-0.0169 -0.281504,-0.0354 -0.417344,-0.0558 -0.135887,-0.0204 -0.268094,-0.042 -0.397196,-0.0647 -0.129004,-0.0228 -0.255097,-0.0476 -0.376979,-0.0739 -0.121779,-0.0268 -0.239823,-0.0542 -0.354203,-0.0839 -0.114381,-0.0295 -0.224885,-0.0607 -0.331429,-0.0937 -0.106576,-0.033 -0.209348,-0.0679 -0.30772,-0.10435 -0.09845,-0.0364 -0.192527,-0.0747 -0.282388,-0.11481 -0.08983,-0.0399 -0.175198,-0.0814 -0.256249,-0.12504 -0.08103,-0.0436 -0.157267,-0.0889 -0.229171,-0.13611 -0.03596,-0.0236 -0.07132,-0.0483 -0.104923,-0.0727 -0.03359,-0.0246 -0.06583,-0.0498 -0.09707,-0.0752 -0.03124,-0.0255 -0.06146,-0.0513 -0.09017,-0.0778 -0.0287,-0.0265 -0.05604,-0.0536 -0.08223,-0.081 -0.02633,-0.0275 -0.05151,-0.0552 -0.07533,-0.0835 -0.0238,-0.0285 -0.04627,-0.0573 -0.06754,-0.0868 -0.02129,-0.0293 -0.04111,-0.0588 -0.05969,-0.0893 -0.0186,-0.0303 -0.03576,-0.0619 -0.05165,-0.0934 -0.01605,-0.0315 -0.03061,-0.0633 -0.04397,-0.0957 -0.01336,-0.0325 -0.02561,-0.0648 -0.03628,-0.0982 -0.01067,-0.0334 -0.01964,-0.0677 -0.02744,-0.10222 -0.0073,-0.0345 -0.01454,-0.07 -0.0195,-0.1055 -0.0056,-0.0356 -0.0088,-0.0712 -0.011,-0.1079 -0.0022,-0.0367 -0.0028,-0.0741 -0.0017,-0.11168 0.0011,-0.0376 0.0038,-0.0753 0.0066,-0.11411 0.0036,-0.0387 0.0086,-0.0783 0.01514,-0.11812 0.0062,-0.0399 0.01404,-0.0804 0.02356,-0.12135 0.0095,-0.0409 0.02071,-0.0824 0.03342,-0.12441 0.0158,-0.0676 0.03298,-0.1375 0.05236,-0.20962 0.01954,-0.0722 0.04065,-0.14677 0.06391,-0.22329 0.02325,-0.0764 0.04831,-0.1546 0.07527,-0.2353 0.02696,-0.0807 0.05607,-0.16325 0.08673,-0.24813 0.06149,-0.16979 0.130876,-0.34807 0.206791,-0.53411 0.07607,-0.18603 0.158865,-0.38006 0.248925,-0.58173 0.0901,-0.20164 0.187061,-0.41105 0.290823,-0.6277 0.103904,-0.21662 0.214546,-0.44032 0.331614,-0.67131 0.117148,-0.23099 0.240818,-0.46956 0.370673,-0.7143 0.129836,-0.24473 0.266329,-0.49624 0.408527,-0.7541 0.142133,-0.25785 0.290474,-0.52207 0.44454,-0.79241 0.154033,-0.27033 0.313969,-0.5462 0.479475,-0.82837 0.16554,-0.28219 0.336159,-0.57032 0.512649,-0.86372 0.17649,-0.2934 0.358521,-0.59257 0.545553,-0.89657 0.187048,-0.304 0.379408,-0.61318 0.576523,-0.92716 0.1971,-0.31398 0.398835,-0.63215 0.605574,-0.95547 0.206738,-0.32332 0.417874,-0.65183 0.63381,-0.98386 0.215922,-0.33205 0.436903,-0.66804 0.661548,-1.00817 0.224661,-0.34013 0.453003,-0.68442 0.685945,-1.03201 0.232926,-0.34759 0.470076,-0.69887 0.710841,-1.0533 0.240764,-0.35443 0.485687,-0.71169 0.733848,-1.07232 0.248146,-0.36064 0.500008,-0.72448 0.75509,-1.09069 0.255084,-0.36622 0.512758,-0.73481 0.77432,-1.10598 0.261563,-0.37117 0.526697,-0.74483 0.794281,-1.12034 0.267601,-0.3755 0.538334,-0.75332 0.811497,-1.13252 0.273179,-0.3792 0.548476,-0.76015 0.82679,-1.14242 0.278299,-0.38227 0.559715,-0.76588 0.842692,-1.15059 0.282994,-0.38473 0.567838,-0.77013 0.855053,-1.15668 0.287212,-0.38653 0.576325,-0.77419 0.867317,-1.16193 0.29099,-0.38773 0.584052,-0.77569 0.878362,-1.16398 0.03226,-0.0426 0.06471,-0.0854 0.09713,-0.12791 9.118915,-1.80937 8.039547,9.4154 4.13085,26.74836 z" /></g></g></svg>
