<?xml version="1.0" encoding="UTF-8" standalone="no"?>
<!-- Created with Inkscape (http://www.inkscape.org/) -->

<svg
   width="210mm"
   height="297mm"
   viewBox="0 0 210 297"
   version="1.1"
   id="svg5"
   inkscape:version="1.2.2 (732a01da63, 2022-12-09)"
   sodipodi:docname="p_jl.svg"
   xml:space="preserve"
   inkscape:export-filename="teknos.png"
   inkscape:export-xdpi="96"
   inkscape:export-ydpi="96"
   xmlns:inkscape="http://www.inkscape.org/namespaces/inkscape"
   xmlns:sodipodi="http://sodipodi.sourceforge.net/DTD/sodipodi-0.dtd"
   xmlns="http://www.w3.org/2000/svg"
   xmlns:svg="http://www.w3.org/2000/svg"><sodipodi:namedview
     id="namedview7"
     pagecolor="#ffffff"
     bordercolor="#000000"
     borderopacity="0.25"
     inkscape:showpageshadow="2"
     inkscape:pageopacity="0.0"
     inkscape:pagecheckerboard="0"
     inkscape:deskcolor="#d1d1d1"
     inkscape:document-units="mm"
     showgrid="false"
     inkscape:zoom="0.70199216"
     inkscape:cx="115.3859"
     inkscape:cy="390.31775"
     inkscape:window-width="1920"
     inkscape:window-height="986"
     inkscape:window-x="-11"
     inkscape:window-y="-11"
     inkscape:window-maximized="1"
     inkscape:current-layer="layer1" /><defs
     id="defs2"><clipPath
       clipPathUnits="userSpaceOnUse"
       id="clipPath984"><g
         id="g988"><g
           inkscape:label="Clip"
           id="use986"
           clip-path="url(#clipPath984)"><path
             id="path990"
             style="fill:#000000;fill-opacity:1;stroke-width:2.04815;paint-order:stroke fill markers"
             d="m 133.71592,53.657821 c -3.75581,0.02622 -7.83462,0.560084 -12.22465,1.690281 -27.459291,8.223072 -11.10605,55.631608 -24.836667,61.407958 l 0.407488,4.47919 c 1.366953,6.41109 5.517159,9.99964 15.328959,9.0039 16.90189,-18.55447 45.07139,-23.7196 51.13077,-40.502216 4.02437,-17.445845 -6.85377,-36.239318 -29.8059,-36.079113 z M 100.322,155.06524 l -0.16193,0.25929 0.0423,0.46041 c 0.0381,-0.24176 0.0787,-0.48063 0.11959,-0.7197 z" /></g></g></clipPath></defs><g
     inkscape:label="Réteg 1"
     inkscape:groupmode="layer"
     id="layer1"><g
       id="g6707"><path
         style="fill:#000000;fill-opacity:1;stroke:none;stroke-width:1.10327;stroke-dasharray:none;stroke-opacity:1;paint-order:stroke fill markers"
         d="m 107.64089,196.25096 c -2.61253,-2.52813 -44.990911,48.74208 -41.455946,54.23844 l 34.337436,18.1355 c 1.4284,-4.18162 5.20617,-12.62029 2.82592,-15.24346 2.81015,-7.14057 15.75926,-56.51499 4.29259,-57.13048 z"
         id="path24245"
         sodipodi:nodetypes="ccccc" /><path
         style="fill:#ff0202;fill-opacity:1;stroke:none;stroke-width:0.960317;stroke-dasharray:none;stroke-opacity:1;paint-order:stroke fill markers"
         d="M 103.00943,205.65781 C 91.074566,219.13948 73.076458,242.05067 73.221296,247.41755 L 98.01303,260.8636 c 0.111121,-2.54517 1.571101,-3.81158 -1.285655,-6.06502 6.749705,-16.32795 15.142745,-54.76212 6.282055,-49.14077 z"
         id="path24247"
         sodipodi:nodetypes="ccccc" /><path
         id="path24249"
         style="fill:#c50000;fill-opacity:1;stroke:none;stroke-width:0.960317;stroke-dasharray:none;stroke-opacity:1;paint-order:stroke fill markers"
         d="m 97.922759,260.8142 c -0.06879,-0.0623 -0.137037,-0.12476 -0.206497,-0.18684 -0.159099,-0.14217 -0.319351,-0.28406 -0.481839,-0.42519 -0.324976,-0.28224 -0.656914,-0.562 -0.99375,-0.84053 -0.336814,-0.27858 -0.678945,-0.55589 -1.025249,-0.83156 -0.346328,-0.27562 -0.696578,-0.54922 -1.050081,-0.82264 -0.35352,-0.2734 -0.710457,-0.54595 -1.068797,-0.81793 -0.358387,-0.27189 -0.718384,-0.54321 -1.079323,-0.81431 -0.721867,-0.54222 -1.446861,-1.08404 -2.165001,-1.62741 -0.359054,-0.27172 -0.716101,-0.54305 -1.070724,-0.81616 -0.354631,-0.2731 -0.706995,-0.54732 -1.054903,-0.82249 -0.347962,-0.27506 -0.691291,-0.55158 -1.030154,-0.82954 -0.338893,-0.2779 -0.672998,-0.55716 -1.0005,-0.83861 -0.16375,-0.14073 -0.325853,-0.28219 -0.486363,-0.42386 -0.16051,-0.14167 -0.31927,-0.28401 -0.476201,-0.4268 -0.156933,-0.1428 -0.311914,-0.28597 -0.465006,-0.42993 -0.153092,-0.14395 -0.30443,-0.28858 -0.453343,-0.43387 -0.148912,-0.14529 -0.295294,-0.29119 -0.439829,-0.43775 -0.144472,-0.14666 -0.287299,-0.29388 -0.427047,-0.44201 -0.139771,-0.14808 -0.276542,-0.29687 -0.411311,-0.44648 -0.13473,-0.14967 -0.267567,-0.30049 -0.397004,-0.45178 -0.129428,-0.1513 -0.255573,-0.30316 -0.379409,-0.45618 -0.123866,-0.15298 -0.245288,-0.3066 -0.363253,-0.46142 -0.117963,-0.15481 -0.233038,-0.31059 -0.344856,-0.46726 -0.111801,-0.1567 -0.219995,-0.31474 -0.325332,-0.47343 -0.105378,-0.15862 -0.207631,-0.3181 -0.306215,-0.47888 -0.09861,-0.16071 -0.19402,-0.32243 -0.285563,-0.48537 -0.09151,-0.16299 -0.179575,-0.327 -0.263786,-0.4922 -0.08422,-0.16517 -0.164294,-0.3318 -0.240887,-0.49933 -0.07661,-0.16753 -0.149305,-0.3365 -0.217982,-0.50648 -0.06864,-0.17006 -0.133489,-0.34142 -0.193964,-0.51393 -0.0605,-0.17248 -0.116513,-0.34545 -0.168494,-0.52058 -0.052,-0.17508 -0.09934,-0.35198 -0.142542,-0.52981 -0.04318,-0.17786 -0.08253,-0.35657 -0.116664,-0.53718 -0.03418,-0.18055 -0.06297,-0.36315 -0.08775,-0.54664 -0.02475,-0.18354 -0.04522,-0.3686 -0.06034,-0.55507 -0.01513,-0.18644 -0.02551,-0.37459 -0.03069,-0.56413 -0.0052,-0.18953 -0.0054,-0.38011 -3.25e-4,-0.57278 0.005,-0.19269 0.01529,-0.38697 0.03085,-0.58289 0.01556,-0.19592 0.03638,-0.39335 0.06275,-0.5926 0.02637,-0.19925 0.0587,-0.40066 0.09617,-0.60334 0.03747,-0.20267 0.08034,-0.40719 0.129201,-0.61336 0.04886,-0.20617 0.10352,-0.41353 0.164065,-0.62332 0.01218,-0.0423 0.02737,-0.0857 0.04011,-0.12823 -3.602266,5.31953 -5.966614,9.61513 -5.913772,11.57341 z" /><path
         id="path24251"
         style="fill:#ff4a4a;fill-opacity:1;stroke:none;stroke-width:0.960317;stroke-dasharray:none;stroke-opacity:1;paint-order:stroke fill markers"
         d="m 88.986923,222.50631 c 0.02498,0.19857 0.05421,0.39637 0.08755,0.59292 0.03531,0.20818 0.07505,0.41485 0.119268,0.62098 0.04423,0.20611 0.09313,0.41159 0.145788,0.61585 0.05268,0.20421 0.109135,0.40765 0.169726,0.61024 0.06061,0.20258 0.125206,0.40426 0.193276,0.60533 0.06808,0.20106 0.139505,0.40135 0.214555,0.60112 0.07503,0.1998 0.153891,0.39894 0.235454,0.59757 0.08155,0.19866 0.165781,0.3966 0.253367,0.5943 0.08761,0.19764 0.178466,0.39521 0.271604,0.59213 0.09316,0.19688 0.188666,0.39387 0.286867,0.59022 0.09818,0.19638 0.198623,0.39194 0.301403,0.58791 0.102765,0.19599 0.207869,0.39197 0.314753,0.58773 0.1069,0.19573 0.215722,0.39178 0.326228,0.58752 0.22102,0.39146 0.449087,0.78269 0.681707,1.17519 0.232629,0.39249 0.469592,0.78553 0.709987,1.18051 0.480791,0.78994 0.973332,1.58707 1.462123,2.39583 0.244396,0.40438 0.487482,0.81149 0.728119,1.22277 0.120345,0.20559 0.240575,0.41242 0.359228,0.62007 0.118684,0.2076 0.236538,0.41623 0.353044,0.62608 0.116499,0.20986 0.231444,0.42093 0.34533,0.63315 0.11387,0.21224 0.226824,0.42544 0.337614,0.64021 0.110797,0.21475 0.219315,0.43073 0.326517,0.64825 0.107201,0.21751 0.212614,0.43695 0.315753,0.65738 0.103162,0.2204 0.204221,0.4418 0.302814,0.66534 0.0986,0.22353 0.194699,0.44934 0.288263,0.67618 0.09359,0.22679 0.184612,0.45517 0.27268,0.68548 0.08807,0.23031 0.17308,0.46259 0.255152,0.69657 0.08207,0.23399 0.161309,0.46941 0.236917,0.70724 0.07561,0.23783 0.147361,0.47741 0.216023,0.71927 0.06866,0.24188 0.134214,0.48637 0.195447,0.73244 0.06123,0.24608 0.118261,0.49424 0.171582,0.74472 0.05332,0.25049 0.103103,0.50305 0.148036,0.75812 0.01233,0.0702 0.0215,0.142 0.03321,0.21251 5.864972,-18.25138 10.965602,-45.85256 3.362912,-41.0293 -4.268302,4.82149 -9.310248,10.84841 -14.02231,16.84817 z" /></g></g></svg>
