<?xml version="1.0" encoding="UTF-8" standalone="no"?>
<!-- Created with Inkscape (http://www.inkscape.org/) -->

<svg
   width="210mm"
   height="297mm"
   viewBox="0 0 210 297"
   version="1.1"
   id="svg5"
   inkscape:version="1.2.2 (732a01da63, 2022-12-09)"
   sodipodi:docname="z_bl.svg"
   xml:space="preserve"
   inkscape:export-filename="teknos.png"
   inkscape:export-xdpi="96"
   inkscape:export-ydpi="96"
   xmlns:inkscape="http://www.inkscape.org/namespaces/inkscape"
   xmlns:sodipodi="http://sodipodi.sourceforge.net/DTD/sodipodi-0.dtd"
   xmlns="http://www.w3.org/2000/svg"
   xmlns:svg="http://www.w3.org/2000/svg"><sodipodi:namedview
     id="namedview7"
     pagecolor="#ffffff"
     bordercolor="#000000"
     borderopacity="0.25"
     inkscape:showpageshadow="2"
     inkscape:pageopacity="0.0"
     inkscape:pagecheckerboard="0"
     inkscape:deskcolor="#d1d1d1"
     inkscape:document-units="mm"
     showgrid="false"
     inkscape:zoom="2.8079686"
     inkscape:cx="269.41184"
     inkscape:cy="414.53454"
     inkscape:window-width="1920"
     inkscape:window-height="986"
     inkscape:window-x="-11"
     inkscape:window-y="-11"
     inkscape:window-maximized="1"
     inkscape:current-layer="layer1" /><defs
     id="defs2"><clipPath
       clipPathUnits="userSpaceOnUse"
       id="clipPath984"><g
         id="g988"><g
           inkscape:label="Clip"
           id="use986"
           clip-path="url(#clipPath984)"><path
             id="path990"
             style="fill:#000000;fill-opacity:1;stroke-width:2.04815;paint-order:stroke fill markers"
             d="m 133.71592,53.657821 c -3.75581,0.02622 -7.83462,0.560084 -12.22465,1.690281 -27.459291,8.223072 -11.10605,55.631608 -24.836667,61.407958 l 0.407488,4.47919 c 1.366953,6.41109 5.517159,9.99964 15.328959,9.0039 16.90189,-18.55447 45.07139,-23.7196 51.13077,-40.502216 4.02437,-17.445845 -6.85377,-36.239318 -29.8059,-36.079113 z M 100.322,155.06524 l -0.16193,0.25929 0.0423,0.46041 c 0.0381,-0.24176 0.0787,-0.48063 0.11959,-0.7197 z" /></g></g></clipPath></defs><g
     inkscape:label="Réteg 1"
     inkscape:groupmode="layer"
     id="layer1"><g
       id="g21094"
       transform="matrix(1.3716368,-0.82480431,0.82480431,1.3716368,-146.95821,38.843131)"><path
         style="fill:#000000;fill-opacity:1;stroke:none;stroke-width:0.689314;stroke-dasharray:none;stroke-opacity:1;paint-order:stroke fill markers"
         d="m 77.125302,164.38291 c -2.19431,-0.58685 -9.760536,40.27825 -6.161036,42.20558 l 24.256517,-0.52736 c -0.490182,-2.71701 -0.990602,-8.47194 -3.086954,-9.18124 -0.634474,-4.75227 -8.56079,-35.6437 -15.008527,-32.49698 z"
         id="path20275"
         sodipodi:nodetypes="ccccc" /><g
         id="g21087"><path
           style="fill:#4dbc00;fill-opacity:1;stroke:none;stroke-width:0.6;stroke-dasharray:none;stroke-opacity:1;paint-order:stroke fill markers"
           d="m 77.45368,170.92576 c -2.421632,10.98596 -5.289752,28.96203 -3.580585,31.84835 l 17.62024,-0.18848 c -0.712373,-1.42341 -0.299873,-2.55831 -2.544097,-2.921 C 87.67527,188.69949 80.584232,165.16524 77.45368,170.92576 Z"
           id="path20271"
           sodipodi:nodetypes="ccccc" /><path
           id="path21007"
           style="fill:#008000;fill-opacity:1;stroke:none;stroke-width:0.6;stroke-dasharray:none;stroke-opacity:1;paint-order:stroke fill markers"
           d="m 91.429045,202.58608 c -0.05647,-0.0131 -0.112717,-0.0265 -0.169499,-0.0393 -0.130048,-0.0293 -0.260643,-0.0581 -0.392224,-0.0858 -0.263163,-0.0554 -0.529373,-0.10733 -0.797884,-0.1571 -0.268511,-0.0498 -0.539544,-0.0973 -0.812354,-0.14263 -0.27281,-0.0453 -0.547145,-0.0883 -0.823205,-0.13022 -0.276061,-0.0419 -0.55373,-0.0823 -0.831991,-0.12196 -0.278261,-0.0396 -0.557228,-0.0784 -0.836641,-0.11679 -0.558828,-0.0768 -1.119241,-0.15243 -1.676384,-0.23099 -0.278571,-0.0393 -0.55593,-0.079 -0.832507,-0.12041 -0.276577,-0.0414 -0.552256,-0.0841 -0.82579,-0.12867 -0.273533,-0.0445 -0.544978,-0.0912 -0.81442,-0.14004 -0.269442,-0.0488 -0.536684,-0.0998 -0.800985,-0.154 -0.13215,-0.0271 -0.263623,-0.0551 -0.394291,-0.0837 -0.130668,-0.0286 -0.260585,-0.0581 -0.38964,-0.0884 -0.129056,-0.0303 -0.257162,-0.0614 -0.384473,-0.0935 -0.127311,-0.0321 -0.253869,-0.0651 -0.379305,-0.0992 -0.125436,-0.0341 -0.249674,-0.0693 -0.373104,-0.10542 -0.123429,-0.0362 -0.246127,-0.0732 -0.367419,-0.11163 -0.121292,-0.0384 -0.241162,-0.0781 -0.360185,-0.11885 -0.119023,-0.0408 -0.23736,-0.0828 -0.353984,-0.12609 -0.116623,-0.0433 -0.231622,-0.0879 -0.345715,-0.13384 -0.114093,-0.0459 -0.22705,-0.0929 -0.338481,-0.1416 -0.11143,-0.0487 -0.221574,-0.0988 -0.330212,-0.15038 -0.108638,-0.0516 -0.215714,-0.10503 -0.321427,-0.15968 -0.105714,-0.0546 -0.209984,-0.11062 -0.312643,-0.16846 -0.102658,-0.0578 -0.203868,-0.11712 -0.30334,-0.17828 -0.09947,-0.0612 -0.197368,-0.124 -0.293523,-0.18862 -0.09615,-0.0646 -0.190481,-0.13126 -0.283186,-0.19947 -0.09271,-0.0682 -0.183726,-0.13838 -0.272852,-0.21033 -0.08913,-0.072 -0.176584,-0.14587 -0.261999,-0.22169 -0.08542,-0.0758 -0.168541,-0.15323 -0.250114,-0.23306 -0.08157,-0.0798 -0.161145,-0.16201 -0.238746,-0.24598 -0.0776,-0.084 -0.153363,-0.16962 -0.226859,-0.25787 -0.0735,-0.0882 -0.14468,-0.17915 -0.213941,-0.27181 -0.06926,-0.0927 -0.136643,-0.18752 -0.201538,-0.28474 -0.06489,-0.0972 -0.127705,-0.19678 -0.188102,-0.29869 -0.0604,-0.10191 -0.118381,-0.20591 -0.174149,-0.31264 -0.05577,-0.10674 -0.109189,-0.21593 -0.160197,-0.32763 -0.05101,-0.1117 -0.09961,-0.22582 -0.145728,-0.34262 -0.04612,-0.1168 -0.08964,-0.23659 -0.130741,-0.35863 -0.0411,-0.12204 -0.07981,-0.24673 -0.115755,-0.37414 -0.03594,-0.12741 -0.06908,-0.25723 -0.09974,-0.39016 -0.0062,-0.0268 -0.01108,-0.0551 -0.01705,-0.0822 -0.351129,3.99858 -0.337355,7.0621 0.286287,8.11527 z" /><path
           id="path21081"
           style="fill:#59df00;fill-opacity:1;stroke:none;stroke-width:0.6;stroke-dasharray:none;stroke-opacity:1;paint-order:stroke fill markers"
           d="m 74.914807,184.38409 c 0.07395,0.10083 0.149985,0.19995 0.227893,0.29714 0.08251,0.10294 0.16698,0.20371 0.253731,0.30283 0.08675,0.0991 0.175864,0.19644 0.266651,0.29197 0.09079,0.0955 0.183404,0.18943 0.278019,0.28164 0.09462,0.0922 0.19115,0.1827 0.289388,0.27181 0.09824,0.0891 0.198069,0.17676 0.299723,0.26304 0.101654,0.0863 0.205195,0.17108 0.310059,0.25476 0.104864,0.0837 0.210976,0.16619 0.318844,0.24753 0.107867,0.0813 0.217481,0.16158 0.328145,0.24081 0.110664,0.0792 0.222642,0.15775 0.335897,0.23513 0.113254,0.0774 0.227492,0.15367 0.343131,0.22945 0.115639,0.0758 0.23255,0.15088 0.350366,0.2253 0.117817,0.0744 0.23678,0.14839 0.356568,0.2217 0.239577,0.14661 0.48293,0.29095 0.729154,0.4346 0.246225,0.14364 0.494987,0.28627 0.746208,0.42891 0.502443,0.28528 1.013481,0.57091 1.526005,0.86403 0.256262,0.14656 0.512639,0.29501 0.768945,0.44648 0.128153,0.0757 0.256618,0.15211 0.384473,0.22945 0.127855,0.0773 0.255573,0.15542 0.382922,0.23461 0.12735,0.0792 0.254217,0.15953 0.380856,0.24081 0.126638,0.0813 0.253067,0.1634 0.378788,0.24701 0.125721,0.0836 0.250574,0.16857 0.375171,0.25477 0.124596,0.0862 0.248804,0.174 0.37207,0.26303 0.123266,0.089 0.24569,0.17919 0.36742,0.2713 0.121729,0.0921 0.242782,0.1862 0.362768,0.28164 0.119986,0.0954 0.239047,0.19245 0.357084,0.29145 0.118037,0.099 0.235002,0.2 0.350883,0.30283 0.115881,0.10283 0.230647,0.2073 0.344165,0.31419 0.113519,0.10689 0.225464,0.21591 0.336414,0.32711 0.11095,0.11121 0.221004,0.22479 0.329179,0.34055 0.108175,0.11576 0.214683,0.23393 0.319877,0.3545 0.105194,0.12057 0.209086,0.24335 0.311092,0.36897 0.02806,0.0346 0.05487,0.071 0.08268,0.10594 -2.341233,-11.74661 -7.939615,-28.36605 -10.625708,-23.42338 -0.866055,3.92894 -1.788391,8.75103 -2.538863,13.45809 z" /></g></g><g
       id="g1002" /></g></svg>
