<?xml version="1.0" encoding="UTF-8" standalone="no"?>
<!-- Created with Inkscape (http://www.inkscape.org/) -->

<svg
   width="210mm"
   height="297mm"
   viewBox="0 0 210 297"
   version="1.1"
   id="svg5"
   inkscape:version="1.2.2 (732a01da63, 2022-12-09)"
   sodipodi:docname="teknos_jk.svg"
   xml:space="preserve"
   inkscape:export-filename="teknos.png"
   inkscape:export-xdpi="96"
   inkscape:export-ydpi="96"
   xmlns:inkscape="http://www.inkscape.org/namespaces/inkscape"
   xmlns:sodipodi="http://sodipodi.sourceforge.net/DTD/sodipodi-0.dtd"
   xmlns="http://www.w3.org/2000/svg"
   xmlns:svg="http://www.w3.org/2000/svg"><sodipodi:namedview
     id="namedview7"
     pagecolor="#ffffff"
     bordercolor="#000000"
     borderopacity="0.25"
     inkscape:showpageshadow="2"
     inkscape:pageopacity="0.0"
     inkscape:pagecheckerboard="0"
     inkscape:deskcolor="#d1d1d1"
     inkscape:document-units="mm"
     showgrid="false"
     inkscape:zoom="0.99276683"
     inkscape:cx="108.78687"
     inkscape:cy="678.91067"
     inkscape:window-width="1920"
     inkscape:window-height="986"
     inkscape:window-x="-11"
     inkscape:window-y="-11"
     inkscape:window-maximized="1"
     inkscape:current-layer="layer1" /><defs
     id="defs2"><clipPath
       clipPathUnits="userSpaceOnUse"
       id="clipPath984"><g
         id="g988"><g
           inkscape:label="Clip"
           id="use986"
           clip-path="url(#clipPath984)"><path
             id="path990"
             style="fill:#000000;fill-opacity:1;stroke-width:2.04815;paint-order:stroke fill markers"
             d="m 133.71592,53.657821 c -3.75581,0.02622 -7.83462,0.560084 -12.22465,1.690281 -27.459291,8.223072 -11.10605,55.631608 -24.836667,61.407958 l 0.407488,4.47919 c 1.366953,6.41109 5.517159,9.99964 15.328959,9.0039 16.90189,-18.55447 45.07139,-23.7196 51.13077,-40.502216 4.02437,-17.445845 -6.85377,-36.239318 -29.8059,-36.079113 z M 100.322,155.06524 l -0.16193,0.25929 0.0423,0.46041 c 0.0381,-0.24176 0.0787,-0.48063 0.11959,-0.7197 z" /></g></g></clipPath></defs><g
     inkscape:label="Réteg 1"
     inkscape:groupmode="layer"
     id="layer1"><g
       id="g27731"
       transform="matrix(-0.18207744,1.5901376,1.5901376,0.18207744,-77.708878,-16.011624)"><path
         style="fill:#000000;fill-opacity:1;stroke:none;stroke-width:0.69173;stroke-dasharray:none;stroke-opacity:1;paint-order:stroke fill markers"
         d="m 74.536434,129.88356 c -1.905422,-5.16697 41.676896,-33.853585 46.088376,-29.1893 3.24216,3.29269 0.11673,19.71788 -3.37981,22.73692 -4.29775,4.54333 -40.329293,12.48114 -42.708566,6.45238 z"
         id="path27724"
         sodipodi:nodetypes="cccc" /><g
         id="g27625"><path
           style="fill:#4dbc00;fill-opacity:1;stroke:none;stroke-width:0.569448;stroke-dasharray:none;stroke-opacity:1;paint-order:stroke fill markers"
           d="m 80.886102,127.52554 c -0.02661,3.75458 31.784828,-3.30596 33.728418,-6.26301 1.86563,-3.19128 5.85608,-17.54832 2.4006,-16.92345 -5.52031,0.61185 -35.972161,18.60411 -36.129018,23.18646 z"
           id="path24980"
           sodipodi:nodetypes="cccc" /><path
           id="path25116"
           style="fill:#008000;fill-opacity:1;stroke:none;stroke-width:0.600001;stroke-dasharray:none;stroke-opacity:1;paint-order:stroke fill markers"
           d="m 94.442297,116.01876 c -0.192628,0.12362 -0.388299,0.24683 -0.579292,0.37052 -0.502946,0.3257 -0.999518,0.6518 -1.488798,0.97668 -0.489281,0.32489 -0.971078,0.64882 -1.443323,0.971 -0.472246,0.32219 -0.935156,0.64255 -1.386996,0.96015 -0.225919,0.1588 -0.449023,0.31657 -0.669209,0.47387 -0.220187,0.15731 -0.437609,0.31417 -0.65164,0.46974 -0.214031,0.15558 -0.424548,0.30993 -0.632003,0.46354 -0.207455,0.15361 -0.411392,0.30645 -0.611849,0.45785 -0.200457,0.15141 -0.397623,0.30165 -0.590662,0.45062 -0.193038,0.14897 -0.382209,0.29657 -0.567407,0.44287 -0.185198,0.14629 -0.366183,0.29121 -0.543119,0.4346 -0.176937,0.14339 -0.350061,0.28505 -0.518315,0.42529 -0.168253,0.14025 -0.331777,0.27913 -0.490926,0.416 -0.159149,0.13687 -0.313914,0.27188 -0.463537,0.40514 -0.149624,0.13326 -0.293889,0.26488 -0.433566,0.39429 -0.139676,0.12942 -0.274284,0.25656 -0.403593,0.38189 -0.129308,0.12533 -0.253551,0.24847 -0.37207,0.36949 -0.118519,0.12102 -0.23169,0.2401 -0.338997,0.35657 -0.107308,0.11646 -0.208699,0.23042 -0.304375,0.3421 -0.09567,0.11167 -0.185612,0.22097 -0.269234,0.32762 -0.08362,0.10666 -0.160881,0.21073 -0.232027,0.31213 -0.07115,0.1014 -0.136053,0.20019 -0.194303,0.29611 -0.02913,0.048 -0.05686,0.0951 -0.08268,0.14159 -0.02582,0.0465 -0.04988,0.0924 -0.07235,0.13746 -0.02247,0.0451 -0.04295,0.0897 -0.06201,0.13332 -0.01906,0.0436 -0.0366,0.0861 -0.05219,0.12816 -0.0156,0.0421 -0.02926,0.0834 -0.04134,0.12402 -0.01208,0.0406 -0.02249,0.0809 -0.03101,0.11989 -0.0085,0.039 -0.01526,0.0768 -0.02015,0.11421 -0.0049,0.0374 -0.0081,0.0743 -0.0093,0.11007 -2.08e-4,0.0293 0.0015,0.0578 0.0052,0.0858 0.0036,0.028 0.0091,0.0555 0.01654,0.0822 0.0074,0.0267 0.01723,0.0531 0.02842,0.0785 0.01119,0.0254 0.02389,0.0502 0.03876,0.0744 0.01487,0.0242 0.03164,0.0474 0.05013,0.0703 0.01849,0.0229 0.03893,0.0455 0.06098,0.0672 0.02205,0.0217 0.04576,0.0426 0.07131,0.063 0.02556,0.0204 0.05265,0.0402 0.08165,0.0594 0.029,0.0192 0.06011,0.0378 0.0925,0.0558 0.03239,0.018 0.06609,0.0353 0.101802,0.0522 0.03571,0.0168 0.07315,0.0334 0.112138,0.0491 0.03898,0.0157 0.07976,0.0304 0.121957,0.045 0.08438,0.029 0.174946,0.0561 0.271818,0.0806 0.09687,0.0245 0.200138,0.0466 0.309025,0.0667 0.108886,0.0201 0.223217,0.038 0.343648,0.0537 0.120431,0.0157 0.246767,0.0293 0.378271,0.0408 0.131505,0.0115 0.268204,0.021 0.410311,0.0284 0.142107,0.007 0.289595,0.013 0.441834,0.0165 0.152239,0.003 0.309389,0.005 0.471289,0.005 0.1619,-3.7e-4 0.32862,-0.003 0.499711,-0.007 0.171091,-0.004 0.346772,-0.0103 0.526583,-0.0181 0.17981,-0.008 0.363845,-0.0172 0.551904,-0.0284 0.188059,-0.0113 0.379838,-0.0241 0.575676,-0.0388 0.195837,-0.0147 0.395785,-0.0311 0.598929,-0.0491 0.203145,-0.018 0.40962,-0.0373 0.619601,-0.0584 0.209981,-0.0211 0.423407,-0.044 0.639754,-0.0682 0.216347,-0.0242 0.435599,-0.0499 0.657841,-0.077 0.222242,-0.0271 0.447228,-0.0558 0.674894,-0.0858 0.455332,-0.0599 0.92106,-0.12527 1.395264,-0.19586 0.474204,-0.0706 0.957114,-0.14653 1.446423,-0.22686 0.48931,-0.0803 0.985049,-0.16508 1.485698,-0.25424 0.500649,-0.0892 1.005897,-0.18249 1.514119,-0.27957 0.508223,-0.0971 1.01966,-0.1977 1.53169,-0.30179 0.512029,-0.10409 1.024786,-0.21176 1.536857,-0.32195 0.51207,-0.11019 1.023344,-0.2231 1.531697,-0.33848 0.50834,-0.11538 1.01378,-0.23329 1.51463,-0.35295 0.50086,-0.11965 0.99714,-0.24129 1.48673,-0.36432 0.4896,-0.12302 0.97237,-0.2471 1.44694,-0.37258 0.47458,-0.12548 0.94104,-0.25228 1.39682,-0.37931 0.45578,-0.12703 0.90106,-0.25423 1.33428,-0.38189 0.43323,-0.12766 0.85401,-0.25553 1.26091,-0.38292 0.20345,-0.0637 0.4038,-0.12723 0.59996,-0.19069 0.19617,-0.0635 0.3883,-0.12707 0.57671,-0.19017 0.18841,-0.0631 0.37276,-0.12598 0.55294,-0.18861 0.18018,-0.0626 0.35614,-0.12502 0.52761,-0.18707 0.17148,-0.0621 0.33844,-0.12365 0.50075,-0.18501 0.16231,-0.0614 0.32017,-0.12238 0.47284,-0.18293 0.15267,-0.0606 0.30031,-0.12072 0.44287,-0.18035 0.14255,-0.0596 0.27988,-0.11866 0.41186,-0.17725 0.13197,-0.0586 0.25838,-0.11671 0.3793,-0.17415 0.0991,-0.0471 0.1918,-0.0938 0.28319,-0.14004 -23.634215,3.43623 -29.984958,2.79263 -18.826247,-6.20169 z"
           sodipodi:nodetypes="cssssssssssssssssssssssssssssscsssssssssssssssssssssssssssssssssssssssssssssssssscc" /><path
           id="path25119"
           style="fill:#59df00;fill-opacity:1;stroke:none;stroke-width:0.600001;stroke-dasharray:none;stroke-opacity:1;paint-order:stroke fill markers"
           d="m 116.30194,117.06056 c 0.0596,-0.18405 0.11881,-0.36915 0.17777,-0.55863 0.072,-0.23136 0.14387,-0.46633 0.21446,-0.70435 0.0706,-0.23801 0.14016,-0.47885 0.20877,-0.72192 0.0686,-0.24306 0.13601,-0.48832 0.20206,-0.73484 0.066,-0.24651 0.13089,-0.49473 0.19378,-0.7431 0.0629,-0.24838 0.12378,-0.49705 0.18294,-0.74569 0.0592,-0.24864 0.11621,-0.49684 0.17105,-0.74414 0.0548,-0.24731 0.10768,-0.49357 0.15761,-0.73794 0.0499,-0.24438 0.0971,-0.48724 0.14159,-0.72709 0.0444,-0.23986 0.0862,-0.47682 0.12454,-0.71055 0.0192,-0.11687 0.0372,-0.23275 0.0548,-0.34778 0.0176,-0.11504 0.0343,-0.22909 0.0501,-0.3421 0.0159,-0.11301 0.0309,-0.22512 0.045,-0.3359 0.0141,-0.11078 0.0275,-0.22031 0.0398,-0.32866 0.0122,-0.10835 0.0233,-0.2157 0.0336,-0.32143 0.0103,-0.10572 0.0196,-0.20974 0.0279,-0.31264 0.008,-0.1029 0.016,-0.2045 0.0222,-0.30438 0.006,-0.0999 0.0114,-0.19842 0.0155,-0.29507 0.004,-0.0966 0.007,-0.19151 0.009,-0.28473 0.002,-0.0932 0.003,-0.18481 0.003,-0.27441 -3.7e-4,-0.0896 -0.002,-0.17726 -0.005,-0.26303 -0.003,-0.0858 -0.007,-0.1694 -0.0119,-0.25115 -0.005,-0.0817 -0.0114,-0.16173 -0.0191,-0.23926 -0.008,-0.0775 -0.0166,-0.15272 -0.0269,-0.22583 -0.0102,-0.0731 -0.0217,-0.14391 -0.0346,-0.21239 -0.0129,-0.0685 -0.0273,-0.13478 -0.0429,-0.19843 -0.0156,-0.0637 -0.0327,-0.12482 -0.0512,-0.18345 -0.0184,-0.0586 -0.0381,-0.11454 -0.0594,-0.16795 -0.0213,-0.0534 -0.044,-0.10394 -0.0682,-0.15193 -0.0121,-0.024 -0.0249,-0.0477 -0.0377,-0.0703 -0.0129,-0.0226 -0.0262,-0.0444 -0.0398,-0.0656 -0.0136,-0.0212 -0.0275,-0.0418 -0.0419,-0.0615 -0.0144,-0.0197 -0.0293,-0.0386 -0.0444,-0.0568 -0.0152,-0.0183 -0.0306,-0.0359 -0.0465,-0.0527 -0.016,-0.0168 -0.0323,-0.0328 -0.0491,-0.0481 -0.0167,-0.0153 -0.0336,-0.0297 -0.0512,-0.0434 -0.0175,-0.0137 -0.0359,-0.0266 -0.0543,-0.0387 -0.0184,-0.0122 -0.0371,-0.0235 -0.0563,-0.0341 -0.0192,-0.0106 -0.0384,-0.0205 -0.0584,-0.0295 -0.02,-0.009 -0.0406,-0.017 -0.0615,-0.0243 -0.0209,-0.007 -0.0424,-0.014 -0.0641,-0.0196 -0.0217,-0.006 -0.0436,-0.0105 -0.0662,-0.0145 -0.0226,-0.004 -0.0458,-0.007 -0.0692,-0.009 -0.0234,-0.002 -0.047,-0.003 -0.0713,-0.004 -0.0243,-4.9e-4 -0.0492,-2.4e-4 -0.0744,0.001 -0.0252,0.001 -0.0509,0.003 -0.077,0.006 -0.0261,0.003 -0.0526,0.007 -0.0796,0.0119 -0.0431,0.005 -0.0877,0.0107 -0.13384,0.0176 -0.0462,0.007 -0.094,0.0148 -0.14315,0.0238 -0.0491,0.009 -0.0994,0.019 -0.15141,0.03 -0.052,0.011 -0.10532,0.0232 -0.16019,0.0362 -0.10976,0.0261 -0.22536,0.0565 -0.34624,0.0904 -0.12088,0.034 -0.24721,0.0716 -0.37879,0.11317 -0.13157,0.0416 -0.26845,0.0869 -0.41031,0.13591 -0.14185,0.0491 -0.28857,0.10188 -0.44028,0.15813 -0.15171,0.0563 -0.30859,0.11611 -0.46974,0.17932 -0.16114,0.0632 -0.32696,0.13005 -0.49713,0.19999 -0.17016,0.0699 -0.34472,0.1432 -0.52348,0.21962 -0.17875,0.0764 -0.36136,0.15607 -0.54828,0.23875 -0.18693,0.0827 -0.37791,0.16813 -0.57258,0.25683 -0.19467,0.0887 -0.39331,0.18043 -0.59531,0.27492 -0.202,0.0945 -0.40759,0.19193 -0.6165,0.29197 -0.20891,0.10003 -0.42075,0.20264 -0.63614,0.30799 -0.21539,0.10535 -0.43432,0.21306 -0.65577,0.3235 -0.22146,0.11043 -0.44573,0.22372 -0.67283,0.33899 -0.2271,0.11528 -0.45704,0.23255 -0.68936,0.35244 -0.23232,0.11988 -0.46723,0.24212 -0.70435,0.36638 -0.23712,0.12426 -0.47629,0.2509 -0.71779,0.37931 -0.2415,0.1284 -0.48525,0.25888 -0.7307,0.39119 -0.24546,0.13231 -0.49257,0.26606 -0.74156,0.40204 -0.24899,0.13598 -0.49978,0.274 -0.75189,0.41341 -0.25211,0.13942 -0.50588,0.28062 -0.76068,0.42323 -0.2548,0.14262 -0.51084,0.28643 -0.76791,0.43202 -0.25707,0.14558 -0.51519,0.293 -0.77411,0.44131 -0.25893,0.14832 -0.51841,0.29774 -0.77877,0.44855 -0.26035,0.15081 -0.52153,0.30272 -0.7829,0.45579 -0.26136,0.15307 -0.52301,0.30741 -0.78496,0.4625 -0.0287,0.017 -0.0576,0.0341 -0.0863,0.0512 -1.771288,5.53185 5.27307,5.65967 16.31011,4.46537 z" /></g></g></g></svg>
