<?xml version="1.0" encoding="UTF-8" standalone="no"?>
<!-- Created with Inkscape (http://www.inkscape.org/) -->

<svg
   width="210mm"
   height="297mm"
   viewBox="0 0 210 297"
   version="1.1"
   id="svg5"
   inkscape:version="1.2.2 (732a01da63, 2022-12-09)"
   sodipodi:docname="armour.svg"
   xmlns:inkscape="http://www.inkscape.org/namespaces/inkscape"
   xmlns:sodipodi="http://sodipodi.sourceforge.net/DTD/sodipodi-0.dtd"
   xmlns="http://www.w3.org/2000/svg"
   xmlns:svg="http://www.w3.org/2000/svg">
  <sodipodi:namedview
     id="namedview7"
     pagecolor="#ffffff"
     bordercolor="#000000"
     borderopacity="0.25"
     inkscape:showpageshadow="2"
     inkscape:pageopacity="0.0"
     inkscape:pagecheckerboard="0"
     inkscape:deskcolor="#d1d1d1"
     inkscape:document-units="mm"
     showgrid="false"
     inkscape:zoom="0.70199216"
     inkscape:cx="-64.815539"
     inkscape:cy="529.92045"
     inkscape:window-width="1920"
     inkscape:window-height="986"
     inkscape:window-x="-11"
     inkscape:window-y="-11"
     inkscape:window-maximized="1"
     inkscape:current-layer="layer1" />
  <defs
     id="defs2" />
  <g
     inkscape:label="Réteg 1"
     inkscape:groupmode="layer"
     id="layer1">
    <g
       id="g2137">
      <path
         sodipodi:type="star"
         style="fill:#000000;fill-rule:evenodd;stroke-width:0.1;stroke-linejoin:round"
         id="path2352"
         inkscape:flatsided="true"
         sodipodi:sides="5"
         sodipodi:cx="55.781723"
         sodipodi:cy="85.934006"
         sodipodi:r1="13.589451"
         sodipodi:r2="11.76881"
         sodipodi:arg1="0.33929261"
         sodipodi:arg2="0.96761114"
         inkscape:rounded="0.1"
         inkscape:randomized="0"
         d="m 68.596444,90.456848 c -0.531692,1.506461 -11.559202,9.102464 -13.156233,9.062317 -1.597032,-0.04015 -12.228948,-8.180639 -12.684275,-9.711912 -0.455328,-1.531273 4.001297,-14.158376 5.31692,-15.064608 1.315624,-0.906231 14.701885,-0.569719 15.970312,0.401472 1.268428,0.971191 5.084968,13.806271 4.553276,15.312731 z"
         inkscape:transform-center-y="-8.6616807"
         transform="matrix(3.9382967,-3.0312431,3.0312431,3.9382967,-399.21441,-51.263387)"
         inkscape:transform-center-x="2.4931929" />
      <path
         sodipodi:type="star"
         style="fill:#255dc0;fill-rule:evenodd;stroke-width:0.1;stroke-linejoin:round;fill-opacity:1"
         id="path788"
         inkscape:flatsided="true"
         sodipodi:sides="5"
         sodipodi:cx="55.781723"
         sodipodi:cy="85.934006"
         sodipodi:r1="13.589451"
         sodipodi:r2="11.76881"
         sodipodi:arg1="0.33929261"
         sodipodi:arg2="0.96761114"
         inkscape:rounded="0.1"
         inkscape:randomized="0"
         d="m 68.596444,90.456848 c -0.531692,1.506461 -11.559202,9.102464 -13.156233,9.062317 -1.597032,-0.04015 -12.228948,-8.180639 -12.684275,-9.711912 -0.455328,-1.531273 4.001297,-14.158376 5.31692,-15.064608 1.315624,-0.906231 14.701885,-0.569719 15.970312,0.401472 1.268428,0.971191 5.084968,13.806271 4.553276,15.312731 z"
         inkscape:transform-center-y="-7.1806737"
         transform="matrix(3.2649185,-2.5129547,2.5129547,3.2649185,-316.69557,-21.630669)"
         inkscape:transform-center-x="2.0668882" />
      <path
         sodipodi:type="star"
         style="fill:#487ddc;fill-rule:evenodd;stroke-width:0.1;stroke-linejoin:round;fill-opacity:1"
         id="path2350"
         inkscape:flatsided="true"
         sodipodi:sides="5"
         sodipodi:cx="55.781723"
         sodipodi:cy="85.934006"
         sodipodi:r1="13.589451"
         sodipodi:r2="11.76881"
         sodipodi:arg1="0.33929261"
         sodipodi:arg2="0.96761114"
         inkscape:rounded="0.1"
         inkscape:randomized="0"
         d="m 68.596444,90.456848 c -0.531692,1.506461 -11.559202,9.102464 -13.156233,9.062317 -1.597032,-0.04015 -12.228948,-8.180639 -12.684275,-9.711912 -0.455328,-1.531273 4.001297,-14.158376 5.31692,-15.064608 1.315624,-0.906231 14.701885,-0.569719 15.970312,0.401472 1.268428,0.971191 5.084968,13.806271 4.553276,15.312731 z"
         inkscape:transform-center-y="-6.312146"
         transform="matrix(2.8700112,-2.2090011,2.2090011,2.8700112,-268.30185,-4.252363)"
         inkscape:transform-center-x="1.8168852" />
      <path
         style="fill:#ffffff;fill-opacity:0.3117207;fill-rule:evenodd;stroke-width:0.1;stroke-linejoin:round"
         d="M 104.40228,86.499366 C 83.861305,77.545799 76.572623,78.177032 39.649009,100.33637 85.99464,67.834774 77.745342,68.937201 104.40228,86.499366 Z"
         id="path2835"
         sodipodi:nodetypes="ccc" />
      <path
         style="fill:#000000;fill-opacity:0.17705736;fill-rule:evenodd;stroke-width:0.1;stroke-linejoin:round"
         d="m 58.503656,158.97524 c 61.126494,-0.25118 47.420044,8.50281 64.517464,-35.52269 -14.8747,30.26196 -17.66023,33.40378 -64.517464,35.52269 z"
         id="path2987"
         sodipodi:nodetypes="ccc" />
      <path
         style="fill:#255dc0;fill-opacity:1;fill-rule:evenodd;stroke-width:4.99999;stroke-linejoin:round"
         d="m 62.496844,101.2742 c 10.267589,-3.71906 26.742705,-3.63749 37.711316,0.13325 -0.241032,29.43626 0.71314,32.42619 -18.389265,43.17479 C 62.21104,133.57318 63.460705,130.5216 62.496844,101.2742 Z"
         id="path912"
         sodipodi:nodetypes="cccc" />
    </g>
    <path
       style="fill:#ff35ff;fill-opacity:1;fill-rule:evenodd;stroke-width:4.99999;stroke-linejoin:round"
       d="m 58.499176,123.79438 49.571054,7.99533 z"
       id="path25330" />
  </g>
</svg>
