<?xml version="1.0" encoding="UTF-8" standalone="no"?>
<!-- Created with Inkscape (http://www.inkscape.org/) -->

<svg
   width="210mm"
   height="297mm"
   viewBox="0 0 210 297"
   version="1.1"
   id="svg5"
   inkscape:version="1.2.2 (732a01da63, 2022-12-09)"
   sodipodi:docname="freeze.svg"
   xmlns:inkscape="http://www.inkscape.org/namespaces/inkscape"
   xmlns:sodipodi="http://sodipodi.sourceforge.net/DTD/sodipodi-0.dtd"
   xmlns="http://www.w3.org/2000/svg"
   xmlns:svg="http://www.w3.org/2000/svg">
  <sodipodi:namedview
     id="namedview7"
     pagecolor="#ffffff"
     bordercolor="#000000"
     borderopacity="0.25"
     inkscape:showpageshadow="2"
     inkscape:pageopacity="0.0"
     inkscape:pagecheckerboard="0"
     inkscape:deskcolor="#d1d1d1"
     inkscape:document-units="mm"
     showgrid="false"
     inkscape:zoom="0.49638342"
     inkscape:cx="-43.313292"
     inkscape:cy="402.91434"
     inkscape:window-width="1920"
     inkscape:window-height="986"
     inkscape:window-x="-11"
     inkscape:window-y="-11"
     inkscape:window-maximized="1"
     inkscape:current-layer="layer1" />
  <defs
     id="defs2" />
  <g
     inkscape:label="Réteg 1"
     inkscape:groupmode="layer"
     id="layer1">
    <g
       id="g1683">
      <path
         sodipodi:type="star"
         style="fill:#000000;fill-rule:evenodd;stroke-width:0.1;stroke-linejoin:round"
         id="path2352"
         inkscape:flatsided="true"
         sodipodi:sides="5"
         sodipodi:cx="55.781723"
         sodipodi:cy="85.934006"
         sodipodi:r1="13.589451"
         sodipodi:r2="11.76881"
         sodipodi:arg1="0.33929261"
         sodipodi:arg2="0.96761114"
         inkscape:rounded="0.1"
         inkscape:randomized="0"
         d="m 68.596444,90.456848 c -0.531692,1.506461 -11.559202,9.102464 -13.156233,9.062317 -1.597032,-0.04015 -12.228948,-8.180639 -12.684275,-9.711912 -0.455328,-1.531273 4.001297,-14.158376 5.31692,-15.064608 1.315624,-0.906231 14.701885,-0.569719 15.970312,0.401472 1.268428,0.971191 5.084968,13.806271 4.553276,15.312731 z"
         inkscape:transform-center-y="-8.6616807"
         transform="matrix(3.9382967,-3.0312431,3.0312431,3.9382967,-399.21441,-51.263387)"
         inkscape:transform-center-x="2.4931929" />
      <path
         sodipodi:type="star"
         style="fill:#15a5cc;fill-rule:evenodd;stroke-width:0.1;stroke-linejoin:round;fill-opacity:1"
         id="path788"
         inkscape:flatsided="true"
         sodipodi:sides="5"
         sodipodi:cx="55.781723"
         sodipodi:cy="85.934006"
         sodipodi:r1="13.589451"
         sodipodi:r2="11.76881"
         sodipodi:arg1="0.33929261"
         sodipodi:arg2="0.96761114"
         inkscape:rounded="0.1"
         inkscape:randomized="0"
         d="m 68.596444,90.456848 c -0.531692,1.506461 -11.559202,9.102464 -13.156233,9.062317 -1.597032,-0.04015 -12.228948,-8.180639 -12.684275,-9.711912 -0.455328,-1.531273 4.001297,-14.158376 5.31692,-15.064608 1.315624,-0.906231 14.701885,-0.569719 15.970312,0.401472 1.268428,0.971191 5.084968,13.806271 4.553276,15.312731 z"
         inkscape:transform-center-y="-7.1806737"
         transform="matrix(3.2649185,-2.5129547,2.5129547,3.2649185,-316.69557,-21.630669)"
         inkscape:transform-center-x="2.0668882" />
      <path
         sodipodi:type="star"
         style="fill:#8ee4e8;fill-rule:evenodd;stroke-width:0.1;stroke-linejoin:round;fill-opacity:1"
         id="path2350"
         inkscape:flatsided="true"
         sodipodi:sides="5"
         sodipodi:cx="55.781723"
         sodipodi:cy="85.934006"
         sodipodi:r1="13.589451"
         sodipodi:r2="11.76881"
         sodipodi:arg1="0.33929261"
         sodipodi:arg2="0.96761114"
         inkscape:rounded="0.1"
         inkscape:randomized="0"
         d="m 68.596444,90.456848 c -0.531692,1.506461 -11.559202,9.102464 -13.156233,9.062317 -1.597032,-0.04015 -12.228948,-8.180639 -12.684275,-9.711912 -0.455328,-1.531273 4.001297,-14.158376 5.31692,-15.064608 1.315624,-0.906231 14.701885,-0.569719 15.970312,0.401472 1.268428,0.971191 5.084968,13.806271 4.553276,15.312731 z"
         inkscape:transform-center-y="-6.312146"
         transform="matrix(2.8700112,-2.2090011,2.2090011,2.8700112,-268.30185,-4.252363)"
         inkscape:transform-center-x="1.8168852" />
      <path
         style="fill:#ffffff;fill-opacity:0.5714286;fill-rule:evenodd;stroke-width:0.1;stroke-linejoin:round"
         d="M 104.40228,86.499366 C 83.861305,77.545799 76.572623,78.177032 39.649009,100.33637 85.99464,67.834774 77.745342,68.937201 104.40228,86.499366 Z"
         id="path2835"
         sodipodi:nodetypes="ccc" />
      <path
         style="fill:#000000;fill-opacity:0.09821428;fill-rule:evenodd;stroke-width:0.1;stroke-linejoin:round"
         d="m 58.503656,158.97524 c 61.126494,-0.25118 47.420044,8.50281 64.517464,-35.52269 -14.8747,30.26196 -17.66023,33.40378 -64.517464,35.52269 z"
         id="path2987"
         sodipodi:nodetypes="ccc" />
      <g
         id="g6458">
        <g
           id="g6397">
          <g
             id="g6378">
            <path
               id="path6363"
               style="fill:#15a5cc;fill-opacity:1;fill-rule:evenodd;stroke:none;stroke-width:4.14043;stroke-linejoin:round;stroke-dasharray:none;stroke-opacity:1"
               inkscape:transform-center-x="-11.966683"
               inkscape:transform-center-y="11.684004"
               d="M -14.858202 116.84345 C -15.131753 116.5744 -15.461977 116.41775 -15.818128 116.41775 L -16.389625 116.41775 C -17.33936 116.41775 -18.104117 117.53287 -18.104117 118.91787 L -18.104117 130.75854 L -18.104117 136.41505 L -14.103635 132.41456 L -14.103635 126.75805 L -14.103635 118.91787 C -14.103635 118.05225 -14.402283 117.29187 -14.858202 116.84345 z "
               transform="rotate(-45)" />
            <rect
               style="fill:#15a5cc;fill-opacity:1;fill-rule:evenodd;stroke:none;stroke-width:4.14043;stroke-linejoin:round;stroke-dasharray:none;stroke-opacity:1"
               id="rect6054"
               width="4"
               height="63.319801"
               x="79.658508"
               y="88.774178"
               rx="1.7143264"
               ry="2.5" />
            <path
               id="rect6355"
               style="fill:#15a5cc;fill-opacity:1;fill-rule:evenodd;stroke:none;stroke-width:4.14043;stroke-linejoin:round;stroke-dasharray:none;stroke-opacity:1"
               d="M 130.39532 1.314371 C 129.9394 1.7627942 129.64075 2.5231664 129.64075 3.3887897 L 129.64075 11.329827 L 129.64075 16.986336 L 133.64087 20.986452 L 133.64087 15.329943 L 133.64087 3.3891551 C 133.64087 2.0041579 132.87611 0.88903659 131.92638 0.88903659 L 131.35525 0.88867118 C 130.99909 0.88867118 130.66887 1.045317 130.39532 1.314371 z "
               transform="rotate(45)" />
          </g>
          <path
             id="path6380"
             style="fill:#15a5cc;fill-opacity:1;fill-rule:evenodd;stroke:none;stroke-width:4.14043;stroke-linejoin:round;stroke-dasharray:none;stroke-opacity:1"
             inkscape:transform-center-x="-11.966683"
             inkscape:transform-center-y="11.684004"
             d="m 72.11446,147.74103 c -0.383677,-0.003 -0.727948,-0.12592 -0.979785,-0.37776 l -0.40411,-0.40411 c -0.671564,-0.67156 -0.42382,-2.00083 0.555523,-2.98018 l 8.372618,-8.37261 3.999757,-3.99976 -6e-6,5.65754 -3.999756,3.99976 -5.543845,5.54384 c -0.612086,0.61209 -1.360931,0.93858 -2.000396,0.93328 z" />
          <path
             id="path6384"
             style="fill:#15a5cc;fill-opacity:1;fill-rule:evenodd;stroke:none;stroke-width:4.14043;stroke-linejoin:round;stroke-dasharray:none;stroke-opacity:1"
             d="m 91.274014,147.73534 c -0.639467,0.005 -1.388309,-0.32118 -2.000397,-0.93327 l -5.615161,-5.61516 -3.999756,-3.99976 3e-6,-5.65702 3.999756,3.99976 8.443412,8.44341 c 0.979341,0.97934 1.227083,2.30862 0.555523,2.98018 l -0.403592,0.40411 c -0.251843,0.25184 -0.596109,0.37458 -0.979788,0.37775 z" />
        </g>
        <g
           id="g6434">
          <g
             id="g6411"
             transform="rotate(60,81.693978,120.43408)">
            <g
               id="g6405">
              <path
                 id="path6399"
                 style="fill:#15a5cc;fill-opacity:1;fill-rule:evenodd;stroke:none;stroke-width:4.14043;stroke-linejoin:round;stroke-dasharray:none;stroke-opacity:1"
                 inkscape:transform-center-x="-11.966683"
                 inkscape:transform-center-y="11.684004"
                 d="m -14.858202,116.84345 c -0.273551,-0.26905 -0.603775,-0.4257 -0.959926,-0.4257 h -0.571497 c -0.949735,0 -1.714492,1.11512 -1.714492,2.50012 v 11.84067 5.65651 l 4.000482,-4.00049 v -5.65651 -7.84018 c 0,-0.86562 -0.298648,-1.626 -0.754567,-2.07442 z"
                 transform="rotate(-45)" />
              <rect
                 style="fill:#15a5cc;fill-opacity:1;fill-rule:evenodd;stroke:none;stroke-width:4.14043;stroke-linejoin:round;stroke-dasharray:none;stroke-opacity:1"
                 id="rect6401"
                 width="4"
                 height="63.319801"
                 x="79.658508"
                 y="88.774178"
                 rx="1.7143264"
                 ry="2.5" />
              <path
                 id="path6403"
                 style="fill:#15a5cc;fill-opacity:1;fill-rule:evenodd;stroke:none;stroke-width:4.14043;stroke-linejoin:round;stroke-dasharray:none;stroke-opacity:1"
                 d="m 130.39532,1.314371 c -0.45592,0.4484232 -0.75457,1.2087954 -0.75457,2.0744187 v 7.9410373 5.656509 l 4.00012,4.000116 V 15.329943 3.3891551 c 0,-1.3849972 -0.76476,-2.50011851 -1.71449,-2.50011851 l -0.57113,-3.6541e-4 c -0.35616,0 -0.68638,0.15664582 -0.95993,0.42569982 z"
                 transform="rotate(45)" />
            </g>
            <path
               id="path6407"
               style="fill:#15a5cc;fill-opacity:1;fill-rule:evenodd;stroke:none;stroke-width:4.14043;stroke-linejoin:round;stroke-dasharray:none;stroke-opacity:1"
               inkscape:transform-center-x="-11.966683"
               inkscape:transform-center-y="11.684004"
               d="m 72.11446,147.74103 c -0.383677,-0.003 -0.727948,-0.12592 -0.979785,-0.37776 l -0.40411,-0.40411 c -0.671564,-0.67156 -0.42382,-2.00083 0.555523,-2.98018 l 8.372618,-8.37261 3.999757,-3.99976 -6e-6,5.65754 -3.999756,3.99976 -5.543845,5.54384 c -0.612086,0.61209 -1.360931,0.93858 -2.000396,0.93328 z" />
            <path
               id="path6409"
               style="fill:#15a5cc;fill-opacity:1;fill-rule:evenodd;stroke:none;stroke-width:4.14043;stroke-linejoin:round;stroke-dasharray:none;stroke-opacity:1"
               d="m 91.274014,147.73534 c -0.639467,0.005 -1.388309,-0.32118 -2.000397,-0.93327 l -5.615161,-5.61516 -3.999756,-3.99976 3e-6,-5.65702 3.999756,3.99976 8.443412,8.44341 c 0.979341,0.97934 1.227083,2.30862 0.555523,2.98018 l -0.403592,0.40411 c -0.251843,0.25184 -0.596109,0.37458 -0.979788,0.37775 z" />
          </g>
        </g>
        <g
           id="g6425"
           transform="rotate(120,81.692395,120.43405)">
          <g
             id="g6419">
            <path
               id="path6413"
               style="fill:#15a5cc;fill-opacity:1;fill-rule:evenodd;stroke:none;stroke-width:4.14043;stroke-linejoin:round;stroke-dasharray:none;stroke-opacity:1"
               inkscape:transform-center-x="-11.966683"
               inkscape:transform-center-y="11.684004"
               d="m -14.858202,116.84345 c -0.273551,-0.26905 -0.603775,-0.4257 -0.959926,-0.4257 h -0.571497 c -0.949735,0 -1.714492,1.11512 -1.714492,2.50012 v 11.84067 5.65651 l 4.000482,-4.00049 v -5.65651 -7.84018 c 0,-0.86562 -0.298648,-1.626 -0.754567,-2.07442 z"
               transform="rotate(-45)" />
            <rect
               style="fill:#15a5cc;fill-opacity:1;fill-rule:evenodd;stroke:none;stroke-width:4.14043;stroke-linejoin:round;stroke-dasharray:none;stroke-opacity:1"
               id="rect6415"
               width="4"
               height="63.319801"
               x="79.658508"
               y="88.774178"
               rx="1.7143264"
               ry="2.5" />
            <path
               id="path6417"
               style="fill:#15a5cc;fill-opacity:1;fill-rule:evenodd;stroke:none;stroke-width:4.14043;stroke-linejoin:round;stroke-dasharray:none;stroke-opacity:1"
               d="m 130.39532,1.314371 c -0.45592,0.4484232 -0.75457,1.2087954 -0.75457,2.0744187 v 7.9410373 5.656509 l 4.00012,4.000116 V 15.329943 3.3891551 c 0,-1.3849972 -0.76476,-2.50011851 -1.71449,-2.50011851 l -0.57113,-3.6541e-4 c -0.35616,0 -0.68638,0.15664582 -0.95993,0.42569982 z"
               transform="rotate(45)" />
          </g>
          <path
             id="path6421"
             style="fill:#15a5cc;fill-opacity:1;fill-rule:evenodd;stroke:none;stroke-width:4.14043;stroke-linejoin:round;stroke-dasharray:none;stroke-opacity:1"
             inkscape:transform-center-x="-11.966683"
             inkscape:transform-center-y="11.684004"
             d="m 72.11446,147.74103 c -0.383677,-0.003 -0.727948,-0.12592 -0.979785,-0.37776 l -0.40411,-0.40411 c -0.671564,-0.67156 -0.42382,-2.00083 0.555523,-2.98018 l 8.372618,-8.37261 3.999757,-3.99976 -6e-6,5.65754 -3.999756,3.99976 -5.543845,5.54384 c -0.612086,0.61209 -1.360931,0.93858 -2.000396,0.93328 z" />
          <path
             id="path6423"
             style="fill:#15a5cc;fill-opacity:1;fill-rule:evenodd;stroke:none;stroke-width:4.14043;stroke-linejoin:round;stroke-dasharray:none;stroke-opacity:1"
             d="m 91.274014,147.73534 c -0.639467,0.005 -1.388309,-0.32118 -2.000397,-0.93327 l -5.615161,-5.61516 -3.999756,-3.99976 3e-6,-5.65702 3.999756,3.99976 8.443412,8.44341 c 0.979341,0.97934 1.227083,2.30862 0.555523,2.98018 l -0.403592,0.40411 c -0.251843,0.25184 -0.596109,0.37458 -0.979788,0.37775 z" />
        </g>
      </g>
    </g>
  </g>
</svg>
