<?xml version="1.0" encoding="UTF-8" standalone="no"?>
<!-- Created with Inkscape (http://www.inkscape.org/) -->

<svg
   width="210mm"
   height="297mm"
   viewBox="0 0 210 297"
   version="1.1"
   id="svg5"
   inkscape:version="1.2.2 (732a01da63, 2022-12-09)"
   sodipodi:docname="rage.svg"
   xmlns:inkscape="http://www.inkscape.org/namespaces/inkscape"
   xmlns:sodipodi="http://sodipodi.sourceforge.net/DTD/sodipodi-0.dtd"
   xmlns="http://www.w3.org/2000/svg"
   xmlns:svg="http://www.w3.org/2000/svg">
  <sodipodi:namedview
     id="namedview7"
     pagecolor="#ffffff"
     bordercolor="#000000"
     borderopacity="0.25"
     inkscape:showpageshadow="2"
     inkscape:pageopacity="0.0"
     inkscape:pagecheckerboard="0"
     inkscape:deskcolor="#d1d1d1"
     inkscape:document-units="mm"
     showgrid="false"
     inkscape:zoom="0.4963834"
     inkscape:cx="-341.46992"
     inkscape:cy="364.6375"
     inkscape:window-width="1920"
     inkscape:window-height="986"
     inkscape:window-x="-11"
     inkscape:window-y="-11"
     inkscape:window-maximized="1"
     inkscape:current-layer="layer1" />
  <defs
     id="defs2" />
  <g
     inkscape:label="Réteg 1"
     inkscape:groupmode="layer"
     id="layer1">
    <g
       id="g1893">
      <path
         sodipodi:type="star"
         style="fill:#000000;fill-rule:evenodd;stroke-width:0.1;stroke-linejoin:round"
         id="path2352"
         inkscape:flatsided="true"
         sodipodi:sides="5"
         sodipodi:cx="55.781723"
         sodipodi:cy="85.934006"
         sodipodi:r1="13.589451"
         sodipodi:r2="11.76881"
         sodipodi:arg1="0.33929261"
         sodipodi:arg2="0.96761114"
         inkscape:rounded="0.1"
         inkscape:randomized="0"
         d="m 68.596444,90.456848 c -0.531692,1.506461 -11.559202,9.102464 -13.156233,9.062317 -1.597032,-0.04015 -12.228948,-8.180639 -12.684275,-9.711912 -0.455328,-1.531273 4.001297,-14.158376 5.31692,-15.064608 1.315624,-0.906231 14.701885,-0.569719 15.970312,0.401472 1.268428,0.971191 5.084968,13.806271 4.553276,15.312731 z"
         inkscape:transform-center-y="-8.6616807"
         transform="matrix(3.9382967,-3.0312431,3.0312431,3.9382967,-399.21441,-51.263387)"
         inkscape:transform-center-x="2.4931929" />
      <path
         sodipodi:type="star"
         style="fill:#7a0505;fill-rule:evenodd;stroke-width:0.1;stroke-linejoin:round;fill-opacity:1"
         id="path788"
         inkscape:flatsided="true"
         sodipodi:sides="5"
         sodipodi:cx="55.781723"
         sodipodi:cy="85.934006"
         sodipodi:r1="13.589451"
         sodipodi:r2="11.76881"
         sodipodi:arg1="0.33929261"
         sodipodi:arg2="0.96761114"
         inkscape:rounded="0.1"
         inkscape:randomized="0"
         d="m 68.596444,90.456848 c -0.531692,1.506461 -11.559202,9.102464 -13.156233,9.062317 -1.597032,-0.04015 -12.228948,-8.180639 -12.684275,-9.711912 -0.455328,-1.531273 4.001297,-14.158376 5.31692,-15.064608 1.315624,-0.906231 14.701885,-0.569719 15.970312,0.401472 1.268428,0.971191 5.084968,13.806271 4.553276,15.312731 z"
         inkscape:transform-center-y="-7.1806737"
         transform="matrix(3.2649185,-2.5129547,2.5129547,3.2649185,-316.69557,-21.630669)"
         inkscape:transform-center-x="2.0668882" />
      <path
         sodipodi:type="star"
         style="fill:#bc0707;fill-rule:evenodd;stroke-width:0.1;stroke-linejoin:round;fill-opacity:1"
         id="path2350"
         inkscape:flatsided="true"
         sodipodi:sides="5"
         sodipodi:cx="55.781723"
         sodipodi:cy="85.934006"
         sodipodi:r1="13.589451"
         sodipodi:r2="11.76881"
         sodipodi:arg1="0.33929261"
         sodipodi:arg2="0.96761114"
         inkscape:rounded="0.1"
         inkscape:randomized="0"
         d="m 68.596444,90.456848 c -0.531692,1.506461 -11.559202,9.102464 -13.156233,9.062317 -1.597032,-0.04015 -12.228948,-8.180639 -12.684275,-9.711912 -0.455328,-1.531273 4.001297,-14.158376 5.31692,-15.064608 1.315624,-0.906231 14.701885,-0.569719 15.970312,0.401472 1.268428,0.971191 5.084968,13.806271 4.553276,15.312731 z"
         inkscape:transform-center-y="-6.312146"
         transform="matrix(2.8700112,-2.2090011,2.2090011,2.8700112,-268.30185,-4.252363)"
         inkscape:transform-center-x="1.8168852" />
      <path
         style="fill:#ffffff;fill-opacity:0.35714287;fill-rule:evenodd;stroke-width:0.1;stroke-linejoin:round"
         d="M 104.40228,86.499366 C 83.861305,77.545799 76.572623,78.177032 39.649009,100.33637 85.99464,67.834774 77.745342,68.937201 104.40228,86.499366 Z"
         id="path2835"
         sodipodi:nodetypes="ccc" />
      <path
         style="fill:#000000;fill-opacity:0.11309524;fill-rule:evenodd;stroke-width:0.1;stroke-linejoin:round"
         d="m 58.503656,158.97524 c 61.126494,-0.25118 47.420044,8.50281 64.517464,-35.52269 -14.8747,30.26196 -17.66023,33.40378 -64.517464,35.52269 z"
         id="path2987"
         sodipodi:nodetypes="ccc" />
      <g
         id="g38471"
         transform="matrix(1.191739,0,0,1.191739,-16.566374,-15.680409)"
         style="fill:#7a0505;fill-opacity:1">
        <g
           id="g23876"
           transform="matrix(0.63540863,0,0,0.63540863,29.552426,36.69818)"
           style="fill:#7a0505;fill-opacity:1">
          <path
             id="path2082"
             style="fill:#7a0505;fill-opacity:1;fill-rule:evenodd;stroke-width:4.99999;stroke-linejoin:round"
             d="m 81.781571,94.225773 a 24.121828,24.121828 0 0 0 -1.21853,0.03927 24.121828,24.121828 0 0 0 -0.303857,0.0098 24.121828,24.121828 0 0 0 -0.0083,5.16e-4 24.121828,24.121828 0 0 0 -0.832508,0.07958 24.121828,24.121828 0 0 0 -0.531234,0.05116 v 5.17e-4 a 24.121828,24.121828 0 0 0 -11.459765,4.563545 c 0.934077,2.539389 2.648572,4.393929 4.863786,7.168039 l -7.072954,-5.31853 a 24.121828,24.121828 0 0 0 -7.551993,17.52812 24.121828,24.121828 0 0 0 23.823352,24.11068 24.121828,24.121828 0 0 0 0.2682,0.01 24.121828,24.121828 0 0 0 0.0057,0 24.121828,24.121828 0 0 0 0.0248,0.001 24.121828,24.121828 0 0 0 0.02429,-0.001 24.121828,24.121828 0 0 0 0.0057,0 24.121828,24.121828 0 0 0 1.280025,-0.0455 24.121828,24.121828 0 0 0 22.811527,-24.07501 24.121828,24.121828 0 0 0 -7.551993,-17.52812 l -7.072954,5.31853 c 2.215214,-2.77411 3.929709,-4.62866 4.863786,-7.168039 a 24.121828,24.121828 0 0 0 -11.92382,-4.608504 24.121828,24.121828 0 0 0 -0.0021,0 24.121828,24.121828 0 0 0 -0.89762,-0.0863 24.121828,24.121828 0 0 0 -0.0083,-5.16e-4 24.121828,24.121828 0 0 0 -0.303857,-0.0098 24.121828,24.121828 0 0 0 -1.224732,-0.03927 24.121828,24.121828 0 0 0 -5.16e-4,0 24.121828,24.121828 0 0 0 -0.0062,0 z M 66.530823,114.32015 c 3.37166,3.93436 6.928744,5.58234 10.679451,5.85443 -5.494264,2.78405 -8.889206,0.152 -10.679451,-5.85443 z m 30.514416,0 c -1.790245,6.00643 -5.185187,8.63848 -10.679451,5.85443 3.750707,-0.27209 7.307791,-1.92007 10.679451,-5.85443 z" />
          <path
             id="path3588"
             style="fill:#7a0505;fill-opacity:1;fill-rule:evenodd;stroke-width:10.7425;stroke-linejoin:round"
             d="m 58.831034,85.888298 a 27.532453,27.532453 0 0 0 0.823723,18.205602 27.532453,27.532453 0 0 0 16.798458,15.79232 17.714466,17.714466 0 0 1 -0.884184,-5.49579 17.714466,17.714466 0 0 1 1.063501,-6.0172 37.592387,37.592387 0 0 1 -16.532841,-18.73374 37.592387,37.592387 0 0 1 -1.268657,-3.751192 z" />
          <path
             id="path8996"
             style="fill:#7a0505;fill-opacity:1;fill-rule:evenodd;stroke-width:10.7425;stroke-linejoin:round"
             d="m 104.74353,85.888298 a 27.532453,27.532453 0 0 1 -0.82373,18.205602 27.532453,27.532453 0 0 1 -16.798455,15.79232 17.714466,17.714466 0 0 0 0.884184,-5.49579 17.714466,17.714466 0 0 0 -1.063501,-6.0172 37.592387,37.592387 0 0 0 16.532842,-18.73374 37.592387,37.592387 0 0 0 1.26866,-3.751192 z" />
        </g>
        <g
           id="g37736"
           style="fill:#7a0505;fill-opacity:1"
           transform="translate(3.5978993,-9.3278869)">
          <path
             style="fill:#7a0505;fill-opacity:1;fill-rule:evenodd;stroke-width:4.99999;stroke-linejoin:round"
             d="m 64.628929,132.18948 c -10.29033,7.05047 0.932774,20.65059 11.726486,14.65811 14.155445,-6.09031 23.548421,-22.46216 29.582725,-15.19113 -5.18364,-9.14966 -15.300163,4.39679 -27.050871,10.7937 -10.676294,7.19736 -19.955225,-1.89303 -14.25834,-10.26068 z"
             id="path28964"
             sodipodi:nodetypes="ccccc" />
          <path
             style="fill:#7a0505;fill-opacity:1;fill-rule:evenodd;stroke-width:4.99999;stroke-linejoin:round"
             d="m 104.33908,127.32566 c 0.5294,1.35114 0.82089,2.46437 0.46639,2.93161 -0.69539,1.31874 -1.91802,1.58302 -2.93162,2.26534 3.48438,-0.77192 6.05512,-1.18396 8.72824,-0.19988 -2.56197,-3.04522 -4.62227,-4.23249 -6.26301,-4.99707 z"
             id="path35554"
             sodipodi:nodetypes="ccccc" />
        </g>
      </g>
    </g>
    <path
       style="fill:#ff35ff;fill-opacity:1;fill-rule:evenodd;stroke-width:4.99999;stroke-linejoin:round"
       d="m 58.499176,123.79438 49.571054,7.99533 z"
       id="path25330" />
  </g>
</svg>
